<?xml version="1.0" encoding="UTF-8"?>
<svg id="Layer_1" data-name="Layer 1" xmlns="http://www.w3.org/2000/svg" viewBox="0 0 432 430">
  <defs>
    <style>
      .cls-1 {
        fill: #fff;
      }

      .cls-2 {
        fill: #b3b5b7;
      }

      .cls-3 {
        fill: none;
        stroke: #e5e7eb;
      }

      .cls-4 {
        fill: #4f5051;
      }

      .cls-5, .cls-6 {
        fill: #a3a5a8;
      }

      .cls-6 {
        fill-rule: evenodd;
      }

      .cls-7 {
        fill: #13e0e5;
      }
    </style>
  </defs>
  <rect class="cls-7" x="85" y="361.44" width="262" height="38" rx="8" ry="8"/>
  <rect class="cls-3" x="42.56" y="181.23" width="346.5" height="43.81" rx="9.96" ry="9.96"/>
  <g>
    <path class="cls-5" d="M45.27,157.88h8.07v2h-5.69v3.44h4.82v2h-4.82v3.97h5.9v2h-8.28v-13.41Z"/>
    <path class="cls-5" d="M56.1,161.22h1.94l.18,1.37h.07c.85-.89,1.83-1.62,3.09-1.62,1.48,0,2.32,.67,2.78,1.8,.96-1.03,1.96-1.8,3.24-1.8,2.12,0,3.11,1.46,3.11,4v6.32h-2.36v-6.01c0-1.66-.49-2.28-1.55-2.28-.64,0-1.33,.41-2.11,1.26v7.04h-2.36v-6.01c0-1.66-.49-2.28-1.55-2.28-.62,0-1.33,.41-2.11,1.26v7.04h-2.36v-10.07Z"/>
    <path class="cls-5" d="M72.85,168.59c0-2.16,1.79-3.28,5.92-3.72-.03-1.08-.47-1.99-1.83-1.99-1,0-1.94,.45-2.83,.99l-.87-1.58c1.11-.7,2.54-1.32,4.13-1.32,2.52,0,3.76,1.55,3.76,4.36v5.96h-1.94l-.18-1.12h-.07c-.9,.77-1.94,1.36-3.12,1.36-1.76,0-2.98-1.2-2.98-2.95Zm5.92,0v-2.26c-2.73,.34-3.64,1.06-3.64,2.08,0,.89,.61,1.28,1.45,1.28s1.44-.4,2.19-1.09Z"/>
    <path class="cls-5" d="M83.7,158.12c0-.8,.62-1.34,1.46-1.34s1.46,.54,1.46,1.34-.62,1.34-1.46,1.34-1.46-.56-1.46-1.34Zm.27,3.1h2.36v10.07h-2.36v-10.07Z"/>
    <path class="cls-5" d="M89.35,168.7v-11.89h2.36v12.02c0,.58,.26,.79,.51,.79,.11,0,.19,0,.37-.04l.3,1.76c-.29,.11-.68,.21-1.25,.21-1.67,0-2.29-1.08-2.29-2.84Z"/>
  </g>
  <g>
    <path class="cls-1" d="M172.25,380.92c0-4.39,2.75-7,6.14-7,1.68,0,3.02,.8,3.86,1.7l-1.27,1.53c-.69-.69-1.49-1.16-2.54-1.16-2.18,0-3.75,1.85-3.75,4.86s1.44,4.91,3.69,4.91c1.19,0,2.11-.55,2.86-1.38l1.27,1.49c-1.09,1.26-2.49,1.95-4.22,1.95-3.37,0-6.05-2.47-6.05-6.91Z"/>
    <path class="cls-1" d="M183.9,382.55c0-3.36,2.28-5.29,4.79-5.29s4.79,1.94,4.79,5.29-2.28,5.27-4.79,5.27-4.79-1.94-4.79-5.27Zm7.15,0c0-2.02-.89-3.36-2.36-3.36s-2.36,1.34-2.36,3.36,.89,3.35,2.36,3.35,2.36-1.33,2.36-3.35Z"/>
    <path class="cls-1" d="M195.83,377.5h1.94l.18,1.36h.07c.9-.88,1.93-1.61,3.31-1.61,2.16,0,3.1,1.46,3.1,4v6.32h-2.36v-6.01c0-1.66-.48-2.28-1.57-2.28-.89,0-1.47,.44-2.3,1.26v7.04h-2.36v-10.07Z"/>
    <path class="cls-1" d="M207.66,384.18v-4.8h-1.44v-1.77l1.56-.11,.28-2.75h1.96v2.75h2.57v1.88h-2.57v4.79c0,1.19,.46,1.77,1.43,1.77,.34,0,.75-.11,1.05-.23l.4,1.74c-.55,.18-1.25,.37-2.06,.37-2.32,0-3.18-1.47-3.18-3.64Z"/>
    <path class="cls-1" d="M214.45,374.4c0-.79,.62-1.34,1.46-1.34s1.46,.54,1.46,1.34-.62,1.34-1.46,1.34-1.46-.56-1.46-1.34Zm.27,3.1h2.36v10.07h-2.36v-10.07Z"/>
    <path class="cls-1" d="M220.09,377.5h1.94l.18,1.36h.07c.9-.88,1.93-1.61,3.31-1.61,2.16,0,3.1,1.46,3.1,4v6.32h-2.36v-6.01c0-1.66-.48-2.28-1.57-2.28-.89,0-1.47,.44-2.3,1.26v7.04h-2.36v-10.07Z"/>
    <path class="cls-1" d="M231.46,383.82v-6.32h2.36v6.01c0,1.66,.48,2.28,1.57,2.28,.89,0,1.47-.41,2.23-1.39v-6.9h2.36v10.07h-1.94l-.18-1.49h-.07c-.89,1.05-1.86,1.73-3.24,1.73-2.16,0-3.1-1.46-3.1-4Z"/>
    <path class="cls-1" d="M242.44,384.87c0-2.16,1.79-3.28,5.92-3.72-.03-1.08-.47-1.99-1.83-1.99-1,0-1.94,.45-2.83,.99l-.87-1.58c1.11-.7,2.54-1.32,4.13-1.32,2.52,0,3.76,1.55,3.76,4.36v5.96h-1.94l-.18-1.12h-.07c-.9,.77-1.94,1.36-3.12,1.36-1.76,0-2.98-1.2-2.98-2.95Zm5.92,0v-2.26c-2.73,.34-3.64,1.06-3.64,2.08,0,.89,.61,1.28,1.45,1.28s1.44-.4,2.19-1.09Z"/>
    <path class="cls-1" d="M253.56,377.5h1.94l.18,1.8h.07c.72-1.31,1.78-2.04,2.86-2.04,.51,0,.84,.07,1.14,.21l-.41,2.05c-.35-.1-.62-.16-1.03-.16-.8,0-1.77,.55-2.38,2.08v6.14h-2.36v-10.07Z"/>
  </g>
  <rect class="cls-3" x="42.56" y="265.96" width="346.5" height="43.81" rx="9.96" ry="9.96"/>
  <g>
    <path class="cls-5" d="M44.56,249.36c0-4.39,2.75-7,6.14-7,1.68,0,3.02,.8,3.86,1.7l-1.27,1.53c-.69-.69-1.49-1.16-2.54-1.16-2.18,0-3.75,1.85-3.75,4.86s1.44,4.91,3.69,4.91c1.19,0,2.11-.55,2.86-1.38l1.27,1.49c-1.09,1.26-2.49,1.95-4.22,1.95-3.37,0-6.05-2.47-6.05-6.91Z"/>
    <path class="cls-5" d="M56.21,251c0-3.36,2.28-5.29,4.79-5.29s4.79,1.94,4.79,5.29-2.28,5.27-4.79,5.27-4.79-1.94-4.79-5.27Zm7.15,0c0-2.02-.89-3.36-2.36-3.36s-2.36,1.34-2.36,3.36,.89,3.35,2.36,3.35,2.36-1.33,2.36-3.35Z"/>
    <path class="cls-5" d="M68.14,245.95h1.94l.18,1.36h.07c.9-.88,1.93-1.61,3.31-1.61,2.16,0,3.1,1.46,3.1,4v6.32h-2.36v-6.01c0-1.66-.48-2.28-1.57-2.28-.89,0-1.47,.44-2.3,1.26v7.04h-2.36v-10.07Z"/>
    <path class="cls-5" d="M79.98,252.63v-4.8h-1.44v-1.77l1.56-.11,.28-2.75h1.96v2.75h2.57v1.88h-2.57v4.79c0,1.19,.46,1.77,1.43,1.77,.34,0,.75-.11,1.05-.23l.4,1.74c-.55,.18-1.25,.37-2.06,.37-2.32,0-3.18-1.47-3.18-3.64Z"/>
    <path class="cls-5" d="M87.03,245.95h1.94l.18,1.8h.07c.72-1.31,1.78-2.04,2.86-2.04,.51,0,.84,.07,1.14,.21l-.41,2.05c-.35-.1-.62-.16-1.03-.16-.8,0-1.77,.55-2.38,2.08v6.14h-2.36v-10.07Z"/>
    <path class="cls-5" d="M93.6,253.32c0-2.16,1.79-3.28,5.92-3.72-.03-1.08-.47-1.99-1.83-1.99-1,0-1.94,.45-2.83,.99l-.87-1.58c1.11-.7,2.54-1.32,4.13-1.32,2.52,0,3.76,1.55,3.76,4.36v5.96h-1.94l-.18-1.12h-.07c-.9,.77-1.94,1.36-3.12,1.36-1.76,0-2.98-1.2-2.98-2.95Zm5.92,0v-2.26c-2.73,.34-3.64,1.06-3.64,2.08,0,.89,.61,1.28,1.45,1.28s1.44-.4,2.19-1.09Z"/>
    <path class="cls-5" d="M103.73,254.87l1.1-1.5c.89,.7,1.76,1.12,2.78,1.12,1.1,0,1.62-.52,1.62-1.21,0-.84-1.09-1.22-2.17-1.63-1.32-.5-2.83-1.26-2.83-2.94s1.41-3.01,3.67-3.01c1.4,0,2.53,.57,3.35,1.21l-1.08,1.45c-.71-.52-1.42-.88-2.21-.88-1.01,0-1.49,.48-1.49,1.12,0,.8,1.02,1.1,2.11,1.5,1.36,.51,2.89,1.17,2.89,3.04,0,1.73-1.37,3.13-3.91,3.13-1.38,0-2.83-.59-3.81-1.4Z"/>
    <path class="cls-5" d="M112.9,251c0-3.27,2.27-5.29,4.64-5.29,2.72,0,4.16,1.97,4.16,4.78,0,.45-.05,.9-.1,1.15h-6.39c.2,1.79,1.35,2.81,2.97,2.81,.86,0,1.6-.27,2.34-.73l.8,1.47c-.96,.65-2.17,1.09-3.45,1.09-2.78,0-4.96-1.95-4.96-5.27Zm6.76-.97c0-1.55-.69-2.49-2.07-2.49-1.17,0-2.21,.88-2.41,2.49h4.48Z"/>
    <path class="cls-5" d="M123.97,245.95h1.94l.18,1.36h.07c.9-.88,1.93-1.61,3.31-1.61,2.16,0,3.1,1.46,3.1,4v6.32h-2.36v-6.01c0-1.66-.48-2.28-1.57-2.28-.89,0-1.47,.44-2.3,1.26v7.04h-2.36v-10.07Zm3.27-3.23c-.51,0-.76,.48-.83,1.37l-1.52-.09c.06-1.86,.8-2.94,2.31-2.94,1.36,0,1.99,1.51,2.8,1.51,.5,0,.75-.5,.82-1.37l1.52,.09c-.06,1.85-.8,2.95-2.31,2.95-1.37,0-2-1.51-2.8-1.51Z"/>
    <path class="cls-5" d="M134.91,253.32c0-2.16,1.79-3.28,5.92-3.72-.03-1.08-.47-1.99-1.83-1.99-1,0-1.94,.45-2.83,.99l-.87-1.58c1.11-.7,2.54-1.32,4.13-1.32,2.52,0,3.76,1.55,3.76,4.36v5.96h-1.94l-.18-1.12h-.07c-.9,.77-1.94,1.36-3.12,1.36-1.76,0-2.98-1.2-2.98-2.95Zm5.92,0v-2.26c-2.73,.34-3.64,1.06-3.64,2.08,0,.89,.61,1.28,1.45,1.28s1.44-.4,2.19-1.09Z"/>
    <path class="cls-5" d="M150.34,242.61h8.07v2h-5.69v3.44h4.82v2h-4.82v3.97h5.9v2h-8.28v-13.41Z"/>
    <path class="cls-5" d="M161.17,245.95h1.94l.18,1.37h.07c.85-.89,1.83-1.62,3.09-1.62,1.48,0,2.32,.67,2.78,1.8,.96-1.03,1.96-1.8,3.24-1.8,2.12,0,3.11,1.46,3.11,4v6.32h-2.36v-6.01c0-1.66-.49-2.28-1.55-2.28-.64,0-1.33,.41-2.11,1.26v7.04h-2.36v-6.01c0-1.66-.49-2.28-1.55-2.28-.62,0-1.33,.41-2.11,1.26v7.04h-2.36v-10.07Z"/>
    <path class="cls-5" d="M177.92,253.32c0-2.16,1.79-3.28,5.92-3.72-.03-1.08-.47-1.99-1.83-1.99-1,0-1.94,.45-2.83,.99l-.87-1.58c1.11-.7,2.54-1.32,4.13-1.32,2.52,0,3.76,1.55,3.76,4.36v5.96h-1.94l-.18-1.12h-.07c-.9,.77-1.94,1.36-3.12,1.36-1.76,0-2.98-1.2-2.98-2.95Zm5.92,0v-2.26c-2.73,.34-3.64,1.06-3.64,2.08,0,.89,.61,1.28,1.45,1.28s1.44-.4,2.19-1.09Z"/>
    <path class="cls-5" d="M188.78,242.85c0-.79,.62-1.34,1.46-1.34s1.46,.54,1.46,1.34-.62,1.34-1.46,1.34-1.46-.56-1.46-1.34Zm.27,3.1h2.36v10.07h-2.36v-10.07Z"/>
    <path class="cls-5" d="M194.42,253.43v-11.89h2.36v12.02c0,.58,.26,.79,.51,.79,.11,0,.19,0,.37-.04l.3,1.76c-.29,.11-.68,.21-1.25,.21-1.67,0-2.29-1.08-2.29-2.84Z"/>
  </g>
  <g>
    <path class="cls-4" d="M110.17,105.01h1.43l2.44,4.41,.81,1.67h.05c-.07-.81-.18-1.8-.18-2.68v-3.41h1.32v7.84h-1.43l-2.44-4.42-.81-1.67h-.05c.07,.83,.18,1.77,.18,2.65v3.44h-1.32v-7.84Z"/>
    <path class="cls-4" d="M117.53,109.91c0-1.91,1.33-3.09,2.72-3.09,1.59,0,2.43,1.15,2.43,2.8,0,.26-.03,.53-.06,.67h-3.74c.12,1.05,.79,1.64,1.74,1.64,.5,0,.94-.16,1.37-.43l.47,.86c-.56,.38-1.27,.64-2.02,.64-1.63,0-2.9-1.14-2.9-3.08Zm3.95-.57c0-.91-.4-1.46-1.21-1.46-.69,0-1.29,.51-1.41,1.46h2.62Z"/>
    <path class="cls-4" d="M123.61,109.91c0-1.96,1.39-3.09,2.96-3.09,.75,0,1.3,.29,1.72,.66l-.67,.9c-.31-.27-.61-.43-.98-.43-.95,0-1.61,.79-1.61,1.97s.65,1.96,1.56,1.96c.46,0,.88-.23,1.22-.51l.56,.91c-.55,.49-1.25,.72-1.92,.72-1.61,0-2.84-1.13-2.84-3.08Z"/>
    <path class="cls-4" d="M128.87,109.91c0-1.91,1.33-3.09,2.72-3.09,1.59,0,2.43,1.15,2.43,2.8,0,.26-.03,.53-.06,.67h-3.74c.12,1.05,.79,1.64,1.74,1.64,.5,0,.94-.16,1.37-.43l.47,.86c-.56,.38-1.27,.64-2.02,.64-1.63,0-2.9-1.14-2.9-3.08Zm3.95-.57c0-.91-.4-1.46-1.21-1.46-.69,0-1.29,.51-1.41,1.46h2.62Z"/>
    <path class="cls-4" d="M134.76,112.17l.64-.88c.52,.41,1.03,.66,1.63,.66,.64,0,.95-.3,.95-.71,0-.49-.64-.71-1.27-.95-.77-.29-1.66-.73-1.66-1.72s.83-1.76,2.14-1.76c.82,0,1.48,.33,1.96,.71l-.63,.85c-.41-.3-.83-.51-1.29-.51-.59,0-.87,.28-.87,.65,0,.47,.59,.64,1.23,.88,.8,.3,1.69,.68,1.69,1.78,0,1.01-.8,1.83-2.29,1.83-.81,0-1.66-.35-2.23-.82Z"/>
    <path class="cls-4" d="M140.36,105.15c0-.47,.36-.78,.85-.78s.85,.32,.85,.78-.37,.78-.85,.78-.85-.33-.85-.78Zm.16,1.81h1.38v5.89h-1.38v-5.89Z"/>
    <path class="cls-4" d="M143.86,110.86v-2.81h-.84v-1.04l.91-.06,.16-1.61h1.15v1.61h1.5v1.1h-1.5v2.8c0,.69,.27,1.03,.83,1.03,.2,0,.44-.07,.61-.13l.23,1.02c-.32,.11-.73,.22-1.2,.22-1.36,0-1.86-.86-1.86-2.13Z"/>
    <path class="cls-4" d="M147.42,111.27c0-1.26,1.05-1.92,3.46-2.18-.02-.63-.27-1.16-1.07-1.16-.58,0-1.14,.26-1.66,.58l-.51-.92c.65-.41,1.48-.77,2.42-.77,1.47,0,2.2,.91,2.2,2.55v3.49h-1.13l-.11-.65h-.04c-.53,.45-1.13,.8-1.83,.8-1.03,0-1.74-.7-1.74-1.73Zm3.46,0v-1.32c-1.6,.2-2.13,.62-2.13,1.21,0,.52,.36,.75,.85,.75s.84-.23,1.28-.64Z"/>
    <path class="cls-4" d="M153.93,106.96h1.13l.11,.8h.04c.5-.52,1.07-.95,1.81-.95,.86,0,1.36,.39,1.63,1.06,.56-.6,1.15-1.06,1.89-1.06,1.24,0,1.82,.85,1.82,2.34v3.69h-1.38v-3.52c0-.97-.29-1.33-.91-1.33-.37,0-.78,.24-1.23,.73v4.12h-1.38v-3.52c0-.97-.29-1.33-.91-1.33-.36,0-.78,.24-1.23,.73v4.12h-1.38v-5.89Z"/>
    <path class="cls-4" d="M163.66,109.91c0-1.96,1.33-3.09,2.8-3.09s2.8,1.13,2.8,3.09-1.33,3.08-2.8,3.08-2.8-1.13-2.8-3.08Zm4.18,0c0-1.18-.52-1.97-1.38-1.97s-1.38,.79-1.38,1.97,.52,1.96,1.38,1.96,1.38-.78,1.38-1.96Z"/>
    <path class="cls-4" d="M170,112.17l.64-.88c.52,.41,1.03,.66,1.63,.66,.64,0,.95-.3,.95-.71,0-.49-.64-.71-1.27-.95-.77-.29-1.66-.73-1.66-1.72s.83-1.76,2.14-1.76c.82,0,1.48,.33,1.96,.71l-.63,.85c-.41-.3-.83-.51-1.29-.51-.59,0-.87,.28-.87,.65,0,.47,.59,.64,1.23,.88,.8,.3,1.69,.68,1.69,1.78,0,1.01-.8,1.83-2.29,1.83-.81,0-1.66-.35-2.23-.82Z"/>
    <path class="cls-4" d="M177.42,106.96h1.4l.94,3.06c.16,.58,.34,1.19,.5,1.78h.05c.16-.59,.34-1.19,.5-1.78l.94-3.06h1.33l-2,5.89h-1.6l-2.05-5.89Z"/>
    <path class="cls-4" d="M183.64,109.91c0-1.91,1.33-3.09,2.72-3.09,1.59,0,2.43,1.15,2.43,2.8,0,.26-.03,.53-.06,.67h-3.74c.12,1.05,.79,1.64,1.74,1.64,.5,0,.94-.16,1.37-.43l.47,.86c-.56,.38-1.27,.64-2.02,.64-1.63,0-2.9-1.14-2.9-3.08Zm3.95-.57c0-.91-.4-1.46-1.21-1.46-.69,0-1.29,.51-1.41,1.46h2.62Z"/>
    <path class="cls-4" d="M190.11,106.96h1.13l.11,1.05h.04c.42-.77,1.04-1.19,1.67-1.19,.3,0,.49,.04,.67,.12l-.24,1.2c-.21-.06-.36-.1-.6-.1-.47,0-1.04,.32-1.39,1.22v3.59h-1.38v-5.89Z"/>
    <path class="cls-4" d="M194.43,105.15c0-.47,.36-.78,.85-.78s.85,.32,.85,.78-.37,.78-.85,.78-.85-.33-.85-.78Zm.16,1.81h1.38v5.89h-1.38v-5.89Z"/>
    <path class="cls-4" d="M197.17,107.02l.86-.06h2.46v1.1h-3.32v-1.04Zm.79-.67c0-1.22,.56-2.12,1.95-2.12,.43,0,.82,.1,1.08,.21l-.26,1.03c-.21-.09-.44-.14-.64-.14-.49,0-.75,.31-.75,.99v6.52h-1.38v-6.5Z"/>
    <path class="cls-4" d="M201.38,105.15c0-.47,.36-.78,.85-.78s.85,.32,.85,.78-.37,.78-.85,.78-.85-.33-.85-.78Zm.16,1.81h1.38v5.89h-1.38v-5.89Z"/>
    <path class="cls-4" d="M204.29,109.91c0-1.96,1.39-3.09,2.96-3.09,.75,0,1.3,.29,1.72,.66l-.67,.9c-.31-.27-.61-.43-.98-.43-.95,0-1.61,.79-1.61,1.97s.65,1.96,1.56,1.96c.46,0,.88-.23,1.22-.51l.56,.91c-.55,.49-1.25,.72-1.92,.72-1.61,0-2.84-1.13-2.84-3.08Z"/>
    <path class="cls-4" d="M209.79,111.27c0-1.26,1.05-1.92,3.46-2.18-.02-.63-.27-1.16-1.07-1.16-.58,0-1.14,.26-1.66,.58l-.51-.92c.65-.41,1.48-.77,2.42-.77,1.47,0,2.2,.91,2.2,2.55v3.49h-1.13l-.11-.65h-.04c-.53,.45-1.13,.8-1.83,.8-1.03,0-1.74-.7-1.74-1.73Zm3.46,0v-1.32c-1.6,.2-2.13,.62-2.13,1.21,0,.52,.36,.75,.85,.75s.84-.23,1.28-.64Z"/>
    <path class="cls-4" d="M216.29,106.96h1.13l.11,1.05h.04c.42-.77,1.04-1.19,1.67-1.19,.3,0,.49,.04,.67,.12l-.24,1.2c-.21-.06-.36-.1-.6-.1-.47,0-1.04,.32-1.39,1.22v3.59h-1.38v-5.89Z"/>
    <path class="cls-4" d="M223.17,111.33v-6.96h1.38v7.03c0,.34,.15,.46,.3,.46,.06,0,.11,0,.22-.02l.17,1.03c-.17,.07-.4,.12-.73,.12-.98,0-1.34-.63-1.34-1.66Z"/>
    <path class="cls-4" d="M226.03,109.91c0-1.96,1.33-3.09,2.8-3.09s2.8,1.13,2.8,3.09-1.33,3.08-2.8,3.08-2.8-1.13-2.8-3.08Zm4.18,0c0-1.18-.52-1.97-1.38-1.97s-1.38,.79-1.38,1.97,.52,1.96,1.38,1.96,1.38-.78,1.38-1.96Z"/>
    <path class="cls-4" d="M232.38,112.17l.64-.88c.52,.41,1.03,.66,1.63,.66,.64,0,.95-.3,.95-.71,0-.49-.64-.71-1.27-.95-.77-.29-1.66-.73-1.66-1.72s.83-1.76,2.14-1.76c.82,0,1.48,.33,1.96,.71l-.63,.85c-.41-.3-.83-.51-1.29-.51-.59,0-.87,.28-.87,.65,0,.47,.59,.64,1.23,.88,.8,.3,1.69,.68,1.69,1.78,0,1.01-.8,1.83-2.29,1.83-.81,0-1.66-.35-2.23-.82Z"/>
    <path class="cls-4" d="M240.17,109.91c0-1.92,1.2-3.09,2.49-3.09,.67,0,1.09,.25,1.54,.65l-.05-.95v-2.13h1.38v8.47h-1.13l-.11-.64h-.04c-.44,.44-1.04,.78-1.67,.78-1.47,0-2.42-1.14-2.42-3.08Zm3.99,1.28v-2.74c-.4-.36-.8-.49-1.2-.49-.75,0-1.37,.71-1.37,1.94s.49,1.96,1.34,1.96c.46,0,.84-.2,1.23-.66Z"/>
    <path class="cls-4" d="M246.98,111.27c0-1.26,1.05-1.92,3.46-2.18-.02-.63-.27-1.16-1.07-1.16-.58,0-1.14,.26-1.66,.58l-.51-.92c.65-.41,1.48-.77,2.42-.77,1.47,0,2.2,.91,2.2,2.55v3.49h-1.13l-.11-.65h-.04c-.53,.45-1.13,.8-1.83,.8-1.03,0-1.74-.7-1.74-1.73Zm3.46,0v-1.32c-1.6,.2-2.13,.62-2.13,1.21,0,.52,.36,.75,.85,.75s.84-.23,1.28-.64Z"/>
    <path class="cls-4" d="M253.51,110.86v-2.81h-.84v-1.04l.91-.06,.16-1.61h1.15v1.61h1.5v1.1h-1.5v2.8c0,.69,.27,1.03,.83,1.03,.2,0,.44-.07,.61-.13l.23,1.02c-.32,.11-.73,.22-1.2,.22-1.36,0-1.86-.86-1.86-2.13Z"/>
    <path class="cls-4" d="M257.05,109.91c0-1.96,1.33-3.09,2.8-3.09s2.8,1.13,2.8,3.09-1.33,3.08-2.8,3.08-2.8-1.13-2.8-3.08Zm4.18,0c0-1.18-.52-1.97-1.38-1.97s-1.38,.79-1.38,1.97,.52,1.96,1.38,1.96,1.38-.78,1.38-1.96Z"/>
    <path class="cls-4" d="M263.4,112.17l.64-.88c.52,.41,1.03,.66,1.63,.66,.64,0,.95-.3,.95-.71,0-.49-.64-.71-1.27-.95-.77-.29-1.66-.73-1.66-1.72s.83-1.76,2.14-1.76c.82,0,1.48,.33,1.96,.71l-.63,.85c-.41-.3-.83-.51-1.29-.51-.59,0-.87,.28-.87,.65,0,.47,.59,.64,1.23,.88,.8,.3,1.69,.68,1.69,1.78,0,1.01-.8,1.83-2.29,1.83-.81,0-1.66-.35-2.23-.82Z"/>
    <path class="cls-4" d="M271.19,109.91c0-1.92,1.2-3.09,2.49-3.09,.67,0,1.09,.25,1.54,.65l-.05-.95v-2.13h1.38v8.47h-1.13l-.11-.64h-.04c-.44,.44-1.04,.78-1.67,.78-1.47,0-2.42-1.14-2.42-3.08Zm3.99,1.28v-2.74c-.4-.36-.8-.49-1.2-.49-.75,0-1.37,.71-1.37,1.94s.49,1.96,1.34,1.96c.46,0,.84-.2,1.23-.66Z"/>
    <path class="cls-4" d="M277.93,109.91c0-1.91,1.33-3.09,2.72-3.09,1.59,0,2.43,1.15,2.43,2.8,0,.26-.03,.53-.06,.67h-3.74c.11,1.05,.79,1.64,1.74,1.64,.5,0,.94-.16,1.37-.43l.47,.86c-.56,.38-1.27,.64-2.02,.64-1.63,0-2.9-1.14-2.9-3.08Zm3.95-.57c0-.91-.4-1.46-1.21-1.46-.69,0-1.29,.51-1.41,1.46h2.62Z"/>
    <path class="cls-4" d="M284.4,111.33v-6.96h1.38v7.03c0,.34,.15,.46,.3,.46,.06,0,.11,0,.22-.02l.17,1.03c-.17,.07-.4,.12-.73,.12-.98,0-1.34-.63-1.34-1.66Z"/>
    <path class="cls-4" d="M289.67,109.91c0-1.96,1.39-3.09,2.96-3.09,.75,0,1.3,.29,1.72,.66l-.67,.9c-.31-.27-.61-.43-.98-.43-.95,0-1.61,.79-1.61,1.97s.65,1.96,1.56,1.96c.46,0,.88-.23,1.22-.51l.56,.91c-.55,.49-1.25,.72-1.92,.72-1.61,0-2.84-1.13-2.84-3.08Z"/>
    <path class="cls-4" d="M294.92,109.91c0-1.96,1.33-3.09,2.8-3.09s2.8,1.13,2.8,3.09-1.33,3.08-2.8,3.08-2.8-1.13-2.8-3.08Zm4.18,0c0-1.18-.52-1.97-1.38-1.97s-1.38,.79-1.38,1.97,.52,1.96,1.38,1.96,1.38-.78,1.38-1.96Z"/>
    <path class="cls-4" d="M301.9,106.96h1.13l.11,1.05h.04c.42-.77,1.04-1.19,1.67-1.19,.3,0,.49,.04,.67,.12l-.24,1.2c-.21-.06-.36-.1-.6-.1-.47,0-1.04,.32-1.39,1.22v3.59h-1.38v-5.89Z"/>
    <path class="cls-4" d="M306.38,106.96h1.13l.11,1.05h.04c.42-.77,1.04-1.19,1.67-1.19,.3,0,.49,.04,.67,.12l-.24,1.2c-.21-.06-.36-.1-.6-.1-.47,0-1.04,.32-1.39,1.22v3.59h-1.38v-5.89Z"/>
    <path class="cls-4" d="M310.34,109.91c0-1.91,1.33-3.09,2.72-3.09,1.59,0,2.43,1.15,2.43,2.8,0,.26-.03,.53-.06,.67h-3.74c.11,1.05,.79,1.64,1.74,1.64,.5,0,.94-.16,1.37-.43l.47,.86c-.56,.38-1.27,.64-2.02,.64-1.63,0-2.9-1.14-2.9-3.08Zm3.95-.57c0-.91-.4-1.46-1.21-1.46-.69,0-1.29,.51-1.41,1.46h2.62Z"/>
    <path class="cls-4" d="M316.43,109.91c0-1.96,1.33-3.09,2.8-3.09s2.8,1.13,2.8,3.09-1.33,3.08-2.8,3.08-2.8-1.13-2.8-3.08Zm4.18,0c0-1.18-.52-1.97-1.38-1.97s-1.38,.79-1.38,1.97,.52,1.96,1.38,1.96,1.38-.78,1.38-1.96Z"/>
    <path class="cls-4" d="M132.9,124.31c0-1.91,1.33-3.09,2.72-3.09,1.59,0,2.43,1.15,2.43,2.8,0,.26-.03,.53-.06,.67h-3.74c.12,1.05,.79,1.64,1.74,1.64,.5,0,.94-.16,1.37-.43l.47,.86c-.56,.38-1.27,.64-2.02,.64-1.63,0-2.9-1.14-2.9-3.08Zm3.95-.57c0-.91-.4-1.46-1.21-1.46-.69,0-1.29,.51-1.41,1.46h2.62Z"/>
    <path class="cls-4" d="M139.37,125.73v-6.96h1.38v7.03c0,.34,.15,.46,.3,.46,.06,0,.11,0,.22-.02l.17,1.03c-.17,.07-.4,.12-.73,.12-.98,0-1.34-.63-1.34-1.66Z"/>
    <path class="cls-4" d="M142.24,124.31c0-1.91,1.33-3.09,2.72-3.09,1.59,0,2.43,1.15,2.43,2.8,0,.26-.03,.53-.06,.67h-3.74c.12,1.05,.79,1.64,1.74,1.64,.5,0,.94-.16,1.37-.43l.47,.86c-.56,.38-1.27,.64-2.02,.64-1.63,0-2.9-1.14-2.9-3.08Zm3.95-.57c0-.91-.4-1.46-1.21-1.46-.69,0-1.29,.51-1.41,1.46h2.62Z"/>
    <path class="cls-4" d="M148.32,124.31c0-1.96,1.39-3.09,2.96-3.09,.75,0,1.3,.29,1.72,.66l-.67,.9c-.31-.27-.61-.43-.98-.43-.95,0-1.61,.79-1.61,1.97s.65,1.96,1.56,1.96c.46,0,.88-.23,1.22-.51l.56,.91c-.55,.49-1.25,.72-1.92,.72-1.61,0-2.84-1.13-2.84-3.08Z"/>
    <path class="cls-4" d="M154.34,125.26v-2.81h-.84v-1.04l.91-.06,.16-1.61h1.15v1.61h1.5v1.1h-1.5v2.8c0,.69,.27,1.03,.83,1.03,.2,0,.44-.07,.61-.13l.23,1.02c-.32,.11-.73,.22-1.2,.22-1.36,0-1.86-.86-1.86-2.13Z"/>
    <path class="cls-4" d="M158.47,121.36h1.13l.11,1.05h.04c.42-.77,1.04-1.19,1.67-1.19,.3,0,.49,.04,.67,.12l-.24,1.2c-.21-.06-.36-.1-.6-.1-.47,0-1.04,.32-1.39,1.22v3.59h-1.38v-5.89Z"/>
    <path class="cls-4" d="M162.43,124.31c0-1.96,1.33-3.09,2.8-3.09s2.8,1.13,2.8,3.09-1.33,3.08-2.8,3.08-2.8-1.13-2.8-3.08Zm4.18,0c0-1.18-.52-1.97-1.38-1.97s-1.38,.79-1.38,1.97,.52,1.96,1.38,1.96,1.38-.78,1.38-1.96Zm-2.09-4.61l1.77-2.09,.95,.92-2.03,1.86-.69-.68Z"/>
    <path class="cls-4" d="M169.41,121.36h1.13l.11,.8h.04c.53-.51,1.13-.94,1.93-.94,1.26,0,1.81,.85,1.81,2.34v3.69h-1.38v-3.52c0-.97-.28-1.33-.92-1.33-.52,0-.86,.25-1.34,.73v4.12h-1.38v-5.89Z"/>
    <path class="cls-4" d="M175.97,119.55c0-.47,.36-.78,.85-.78s.85,.32,.85,.78-.37,.78-.85,.78-.85-.33-.85-.78Zm.16,1.81h1.38v5.89h-1.38v-5.89Z"/>
    <path class="cls-4" d="M178.89,124.31c0-1.96,1.39-3.09,2.96-3.09,.75,0,1.3,.29,1.72,.66l-.67,.9c-.31-.27-.61-.43-.98-.43-.95,0-1.61,.79-1.61,1.97s.65,1.96,1.56,1.96c.46,0,.88-.23,1.22-.51l.56,.91c-.55,.49-1.25,.72-1.92,.72-1.61,0-2.84-1.13-2.84-3.08Z"/>
    <path class="cls-4" d="M184.14,124.31c0-1.96,1.33-3.09,2.8-3.09s2.8,1.13,2.8,3.09-1.33,3.08-2.8,3.08-2.8-1.13-2.8-3.08Zm4.18,0c0-1.18-.52-1.97-1.38-1.97s-1.38,.79-1.38,1.97,.52,1.96,1.38,1.96,1.38-.78,1.38-1.96Z"/>
    <path class="cls-4" d="M193.13,125.67c0-1.26,1.05-1.92,3.46-2.18-.02-.63-.27-1.16-1.07-1.16-.58,0-1.14,.26-1.66,.58l-.51-.92c.65-.41,1.48-.77,2.42-.77,1.47,0,2.2,.91,2.2,2.55v3.49h-1.13l-.11-.65h-.04c-.53,.45-1.13,.8-1.83,.8-1.03,0-1.74-.7-1.74-1.73Zm3.46,0v-1.32c-1.6,.2-2.13,.62-2.13,1.21,0,.52,.36,.75,.85,.75s.84-.23,1.28-.64Z"/>
    <path class="cls-4" d="M199.05,126.57l.64-.88c.52,.41,1.03,.66,1.63,.66,.64,0,.95-.3,.95-.71,0-.49-.64-.71-1.27-.95-.77-.29-1.66-.73-1.66-1.72s.83-1.76,2.14-1.76c.82,0,1.48,.33,1.96,.71l-.63,.85c-.41-.3-.83-.51-1.29-.51-.59,0-.87,.28-.87,.65,0,.47,.59,.64,1.23,.88,.8,.3,1.69,.68,1.69,1.78,0,1.01-.8,1.83-2.29,1.83-.81,0-1.66-.35-2.23-.82Z"/>
    <path class="cls-4" d="M204.42,124.31c0-1.96,1.33-3.09,2.8-3.09s2.8,1.13,2.8,3.09-1.33,3.08-2.8,3.08-2.8-1.13-2.8-3.08Zm4.18,0c0-1.18-.52-1.97-1.38-1.97s-1.38,.79-1.38,1.97,.52,1.96,1.38,1.96,1.38-.78,1.38-1.96Z"/>
    <path class="cls-4" d="M211.01,124.31c0-1.96,1.39-3.09,2.96-3.09,.75,0,1.3,.29,1.72,.66l-.67,.9c-.31-.27-.61-.43-.98-.43-.95,0-1.61,.79-1.61,1.97s.65,1.96,1.56,1.96c.46,0,.88-.23,1.22-.51l.56,.91c-.55,.49-1.25,.72-1.92,.72-1.61,0-2.84-1.13-2.84-3.08Z"/>
    <path class="cls-4" d="M216.78,119.55c0-.47,.36-.78,.85-.78s.85,.32,.85,.78-.37,.78-.85,.78-.85-.33-.85-.78Zm.16,1.81h1.38v5.89h-1.38v-5.89Z"/>
    <path class="cls-4" d="M219.77,125.67c0-1.26,1.05-1.92,3.46-2.18-.02-.63-.27-1.16-1.07-1.16-.58,0-1.14,.26-1.66,.58l-.51-.92c.65-.41,1.48-.77,2.42-.77,1.47,0,2.2,.91,2.2,2.55v3.49h-1.13l-.11-.65h-.04c-.53,.45-1.13,.8-1.83,.8-1.03,0-1.74-.7-1.74-1.73Zm3.46,0v-1.32c-1.6,.2-2.13,.62-2.13,1.21,0,.52,.36,.75,.85,.75s.84-.23,1.28-.64Z"/>
    <path class="cls-4" d="M225.92,124.31c0-1.92,1.2-3.09,2.49-3.09,.67,0,1.09,.25,1.54,.65l-.05-.95v-2.13h1.38v8.47h-1.13l-.11-.64h-.04c-.44,.44-1.04,.78-1.67,.78-1.47,0-2.42-1.14-2.42-3.08Zm3.99,1.28v-2.74c-.4-.36-.8-.49-1.2-.49-.75,0-1.37,.71-1.37,1.94s.49,1.96,1.34,1.96c.46,0,.84-.2,1.23-.66Z"/>
    <path class="cls-4" d="M232.66,124.31c0-1.96,1.33-3.09,2.8-3.09s2.8,1.13,2.8,3.09-1.33,3.08-2.8,3.08-2.8-1.13-2.8-3.08Zm4.18,0c0-1.18-.52-1.97-1.38-1.97s-1.38,.79-1.38,1.97,.52,1.96,1.38,1.96,1.38-.78,1.38-1.96Z"/>
    <path class="cls-4" d="M241.64,125.67c0-1.26,1.05-1.92,3.46-2.18-.02-.63-.27-1.16-1.07-1.16-.58,0-1.14,.26-1.66,.58l-.51-.92c.65-.41,1.48-.77,2.42-.77,1.47,0,2.2,.91,2.2,2.55v3.49h-1.13l-.11-.65h-.04c-.53,.45-1.13,.8-1.83,.8-1.03,0-1.74-.7-1.74-1.73Zm3.46,0v-1.32c-1.6,.2-2.13,.62-2.13,1.21,0,.52,.36,.75,.85,.75s.84-.23,1.28-.64Z"/>
    <path class="cls-4" d="M249.97,126.57l.64-.88c.52,.41,1.03,.66,1.63,.66,.64,0,.95-.3,.95-.71,0-.49-.64-.71-1.27-.95-.77-.29-1.66-.73-1.66-1.72s.83-1.76,2.14-1.76c.82,0,1.48,.33,1.96,.71l-.63,.85c-.41-.3-.83-.51-1.29-.51-.59,0-.87,.28-.87,.65,0,.47,.59,.64,1.23,.88,.8,.3,1.69,.68,1.69,1.78,0,1.01-.8,1.83-2.29,1.83-.81,0-1.66-.35-2.23-.82Z"/>
    <path class="cls-4" d="M255.66,125.05v-3.69h1.38v3.52c0,.97,.28,1.33,.92,1.33,.52,0,.86-.24,1.31-.82v-4.03h1.38v5.89h-1.13l-.11-.87h-.04c-.52,.61-1.09,1.01-1.9,1.01-1.26,0-1.81-.85-1.81-2.34Z"/>
    <path class="cls-4" d="M264.41,124.31c0-1.96,1.39-3.09,2.96-3.09,.75,0,1.3,.29,1.72,.66l-.67,.9c-.31-.27-.61-.43-.98-.43-.95,0-1.61,.79-1.61,1.97s.65,1.96,1.56,1.96c.46,0,.88-.23,1.22-.51l.56,.91c-.55,.49-1.25,.72-1.92,.72-1.61,0-2.84-1.13-2.84-3.08Z"/>
    <path class="cls-4" d="M270.27,125.05v-3.69h1.38v3.52c0,.97,.28,1.33,.92,1.33,.52,0,.86-.24,1.3-.82v-4.03h1.38v5.89h-1.13l-.11-.87h-.04c-.52,.61-1.09,1.01-1.9,1.01-1.26,0-1.81-.85-1.81-2.34Z"/>
    <path class="cls-4" d="M276.62,124.31c0-1.91,1.33-3.09,2.72-3.09,1.59,0,2.43,1.15,2.43,2.8,0,.26-.03,.53-.06,.67h-3.74c.12,1.05,.79,1.64,1.74,1.64,.5,0,.94-.16,1.37-.43l.47,.86c-.56,.38-1.27,.64-2.02,.64-1.63,0-2.9-1.14-2.9-3.08Zm3.95-.57c0-.91-.4-1.46-1.21-1.46-.69,0-1.29,.51-1.41,1.46h2.62Z"/>
    <path class="cls-4" d="M283.1,121.36h1.13l.11,.8h.04c.53-.51,1.13-.94,1.93-.94,1.26,0,1.81,.85,1.81,2.34v3.69h-1.38v-3.52c0-.97-.28-1.33-.92-1.33-.52,0-.86,.25-1.34,.73v4.12h-1.38v-5.89Z"/>
    <path class="cls-4" d="M290.02,125.26v-2.81h-.84v-1.04l.91-.06,.16-1.61h1.15v1.61h1.5v1.1h-1.5v2.8c0,.69,.27,1.03,.83,1.03,.2,0,.44-.07,.61-.13l.23,1.02c-.32,.11-.73,.22-1.2,.22-1.36,0-1.86-.86-1.86-2.13Z"/>
    <path class="cls-4" d="M293.58,125.67c0-1.26,1.05-1.92,3.46-2.18-.02-.63-.27-1.16-1.07-1.16-.58,0-1.14,.26-1.66,.58l-.51-.92c.65-.41,1.48-.77,2.42-.77,1.47,0,2.2,.91,2.2,2.55v3.49h-1.13l-.11-.65h-.04c-.53,.45-1.13,.8-1.83,.8-1.03,0-1.74-.7-1.74-1.73Zm3.46,0v-1.32c-1.6,.2-2.13,.62-2.13,1.21,0,.52,.36,.75,.85,.75s.84-.23,1.28-.64Z"/>
  </g>
  <path class="cls-5" d="M204,44.18v18h24v-18h-24Zm21.52,2l-9.52,7.71-9.52-7.71s19.04,0,19.04,0Zm-19.52,14v-11.82l10,8.1,10-8.1v11.82h-20Z"/>
  <path class="cls-6" d="M240.1,67.24h-2.01v-4.42c-3.72,8.51-12.22,14.46-22.1,14.46-13.3,0-24.1-10.8-24.1-24.1h2.01c0,12.19,9.9,22.1,22.1,22.1,9.36,0,17.37-5.83,20.59-14.06h-4.52v-2.01h8.03v8.03Zm-24.15-17.07-16.03-3.01h-8.03v-8.03h2.01v4.42c3.72-8.51,12.22-14.46,22.1-14.46,13.3,0,24.1,10.8,24.1,24.1h-2.01c0-12.19-9.9-22.1-22.1-22.1-9.36,0-17.37,5.83-20.59,14.06h4.52s0,2.01,0,2.01Z"/>
  <g>
    <path class="cls-2" d="M60.46,202.97c0-2.37,1.6-3.83,3.28-3.83,1.86,0,2.91,1.33,2.91,3.42,0,.26-.02,.52-.06,.7h-4.91c.09,1.54,1.03,2.55,2.42,2.55,.7,0,1.27-.23,1.81-.58l.44,.81c-.64,.42-1.42,.76-2.41,.76-1.94,0-3.49-1.42-3.49-3.82Zm5.1-.6c0-1.46-.66-2.26-1.8-2.26-1.03,0-1.94,.82-2.09,2.26h3.89Z"/>
    <path class="cls-2" d="M67.05,209.67l.24-.94c.19,.06,.44,.13,.69,.13,.73,0,.9-.55,.9-1.43v-8.11h1.23v8.11c0,1.49-.55,2.43-2,2.43-.44,0-.81-.09-1.07-.19Zm1.61-12.65c0-.48,.37-.8,.85-.8s.85,.31,.85,.8-.37,.8-.85,.8-.85-.33-.85-.8Z"/>
    <path class="cls-2" d="M72.47,202.97c0-2.37,1.6-3.83,3.28-3.83,1.86,0,2.91,1.33,2.91,3.42,0,.26-.02,.52-.06,.7h-4.91c.09,1.54,1.03,2.55,2.42,2.55,.7,0,1.27-.23,1.81-.58l.44,.81c-.64,.42-1.42,.76-2.41,.76-1.94,0-3.49-1.42-3.49-3.82Zm5.1-.6c0-1.46-.66-2.26-1.8-2.26-1.03,0-1.94,.82-2.09,2.26h3.89Z"/>
    <path class="cls-2" d="M80.89,199.31h1.02l.1,1.06h.04c.64-.69,1.4-1.24,2.27-1.24,1.12,0,1.71,.53,2.01,1.39,.76-.82,1.52-1.39,2.4-1.39,1.5,0,2.22,.99,2.22,2.85v4.62h-1.23v-4.46c0-1.36-.43-1.94-1.36-1.94-.57,0-1.15,.37-1.83,1.12v5.28h-1.23v-4.46c0-1.36-.43-1.94-1.36-1.94-.55,0-1.15,.37-1.83,1.12v5.28h-1.23v-7.29Z"/>
    <path class="cls-2" d="M93.76,199.31h1.02l.1,.84h.04c.66-.55,1.48-1.02,2.32-1.02,1.88,0,2.89,1.46,2.89,3.71,0,2.49-1.49,3.94-3.16,3.94-.67,0-1.35-.31-2.02-.84l.03,1.27v2.47h-1.23v-10.37Zm5.1,3.55c0-1.61-.55-2.69-1.92-2.69-.62,0-1.24,.34-1.95,1v3.82c.66,.55,1.29,.76,1.78,.76,1.21,0,2.1-1.09,2.1-2.89Z"/>
    <path class="cls-2" d="M102.46,205.14v-9.22h1.23v9.31c0,.38,.16,.53,.34,.53,.07,0,.13,0,.27-.03l.17,.94c-.17,.06-.39,.12-.71,.12-.92,0-1.3-.59-1.3-1.64Z"/>
    <path class="cls-2" d="M106.18,202.97c0-2.43,1.59-3.83,3.38-3.83s3.38,1.4,3.38,3.83-1.59,3.82-3.38,3.82-3.38-1.4-3.38-3.82Zm5.48,0c0-1.67-.85-2.81-2.1-2.81s-2.1,1.14-2.1,2.81,.85,2.79,2.1,2.79,2.1-1.12,2.1-2.79Z"/>
    <path class="cls-2" d="M114.75,203.55c0-4.01,2.9-6.64,6.26-6.64,3.03,0,4.93,2.01,4.93,4.98,0,2.62-1.64,3.98-3,3.98-.82,0-1.45-.38-1.55-1.14h-.03c-.48,.58-1.16,1.03-1.82,1.03-1.02,0-1.81-.76-1.81-2.12,0-1.6,1.13-3.48,2.88-3.48,.52,0,.93,.23,1.21,.73h.03l.16-.61h.82l-.59,3c-.29,1.19,0,1.75,.82,1.75,.94,0,2.01-1.15,2.01-3.1,0-2.42-1.43-4.19-4.16-4.19s-5.25,2.27-5.25,5.77c0,2.93,1.91,4.59,4.46,4.59,.91,0,1.75-.28,2.43-.67l.33,.74c-.87,.52-1.81,.77-2.86,.77-2.94,0-5.28-1.88-5.28-5.38Zm6.4,.47l.42-2.38c-.29-.46-.56-.62-.96-.62-1.18,0-1.91,1.42-1.91,2.55,0,.96,.45,1.34,1.05,1.34,.42,0,.87-.26,1.39-.88Z"/>
    <path class="cls-2" d="M127.82,202.97c0-2.37,1.6-3.83,3.28-3.83,1.86,0,2.91,1.33,2.91,3.42,0,.26-.02,.52-.06,.7h-4.91c.09,1.54,1.03,2.55,2.42,2.55,.7,0,1.27-.23,1.81-.58l.44,.81c-.64,.42-1.42,.76-2.41,.76-1.94,0-3.49-1.42-3.49-3.82Zm5.1-.6c0-1.46-.66-2.26-1.8-2.26-1.03,0-1.94,.82-2.09,2.26h3.89Z"/>
    <path class="cls-2" d="M136.24,199.31h1.02l.1,1.06h.04c.64-.69,1.4-1.24,2.27-1.24,1.12,0,1.71,.53,2.01,1.39,.76-.82,1.52-1.39,2.4-1.39,1.5,0,2.22,.99,2.22,2.85v4.62h-1.23v-4.46c0-1.36-.43-1.94-1.36-1.94-.57,0-1.15,.37-1.83,1.12v5.28h-1.23v-4.46c0-1.36-.43-1.94-1.36-1.94-.55,0-1.15,.37-1.83,1.12v5.28h-1.23v-7.29Z"/>
    <path class="cls-2" d="M148.66,204.71c0-1.59,1.37-2.38,4.48-2.72,0-.94-.31-1.84-1.5-1.84-.84,0-1.6,.4-2.17,.78l-.48-.85c.67-.44,1.69-.95,2.86-.95,1.78,0,2.53,1.18,2.53,3v4.47h-1.02l-.1-.87h-.04c-.7,.58-1.51,1.05-2.41,1.05-1.22,0-2.14-.76-2.14-2.07Zm4.48,.11v-2.02c-2.44,.29-3.27,.89-3.27,1.82,0,.83,.56,1.17,1.28,1.17s1.29-.34,1.99-.96Z"/>
    <path class="cls-2" d="M156.88,197.02c0-.48,.37-.8,.85-.8s.85,.31,.85,.8-.37,.8-.85,.8-.85-.33-.85-.8Zm.23,2.3h1.23v7.29h-1.23v-7.29Z"/>
    <path class="cls-2" d="M161.23,205.14v-9.22h1.23v9.31c0,.38,.16,.53,.34,.53,.07,0,.13,0,.27-.03l.17,.94c-.17,.06-.39,.12-.71,.12-.92,0-1.3-.59-1.3-1.64Z"/>
    <path class="cls-2" d="M165.23,205.85c0-.57,.4-.95,.89-.95s.89,.39,.89,.95-.4,.93-.89,.93-.89-.39-.89-.93Z"/>
    <path class="cls-2" d="M168.95,202.97c0-2.43,1.64-3.83,3.51-3.83,.96,0,1.62,.39,2.13,.86l-.63,.82c-.42-.38-.87-.64-1.45-.64-1.32,0-2.29,1.14-2.29,2.81s.92,2.79,2.26,2.79c.67,0,1.26-.32,1.71-.73l.53,.83c-.65,.58-1.48,.93-2.36,.93-1.94,0-3.42-1.4-3.42-3.82Z"/>
    <path class="cls-2" d="M175.91,202.97c0-2.43,1.59-3.83,3.38-3.83s3.38,1.4,3.38,3.83-1.59,3.82-3.38,3.82-3.38-1.4-3.38-3.82Zm5.48,0c0-1.67-.85-2.81-2.1-2.81s-2.1,1.14-2.1,2.81,.85,2.79,2.1,2.79,2.1-1.12,2.1-2.79Z"/>
    <path class="cls-2" d="M185.02,199.31h1.02l.1,1.06h.04c.64-.69,1.4-1.24,2.27-1.24,1.12,0,1.71,.53,2.01,1.39,.76-.82,1.52-1.39,2.4-1.39,1.5,0,2.22,.99,2.22,2.85v4.62h-1.23v-4.46c0-1.36-.43-1.94-1.36-1.94-.57,0-1.15,.37-1.83,1.12v5.28h-1.23v-4.46c0-1.36-.43-1.94-1.36-1.94-.55,0-1.15,.37-1.83,1.12v5.28h-1.23v-7.29Z"/>
  </g>
  <g>
    <path class="cls-2" d="M61.07,288.89l.84-1.41-1.45-.61,.22-.69,1.54,.38,.13-1.62h.73l.13,1.61,1.54-.37,.22,.69-1.46,.61,.85,1.41-.59,.43-1.05-1.28-1.07,1.28-.59-.43Z"/>
    <path class="cls-2" d="M67.77,288.89l.84-1.41-1.45-.61,.22-.69,1.54,.38,.13-1.62h.73l.13,1.61,1.54-.37,.22,.69-1.46,.61,.85,1.41-.59,.43-1.05-1.28-1.07,1.28-.59-.43Z"/>
    <path class="cls-2" d="M74.48,288.89l.84-1.41-1.45-.61,.22-.69,1.54,.38,.13-1.62h.73l.13,1.61,1.54-.37,.22,.69-1.46,.61,.85,1.41-.59,.43-1.05-1.28-1.07,1.28-.59-.43Z"/>
    <path class="cls-2" d="M81.18,288.89l.84-1.41-1.45-.61,.22-.69,1.54,.38,.13-1.62h.73l.13,1.61,1.54-.37,.22,.69-1.46,.61,.85,1.41-.59,.43-1.05-1.28-1.07,1.28-.59-.43Z"/>
    <path class="cls-2" d="M87.89,288.89l.84-1.41-1.45-.61,.22-.69,1.54,.38,.13-1.62h.73l.13,1.61,1.54-.37,.22,.69-1.46,.61,.85,1.41-.59,.43-1.05-1.28-1.07,1.28-.59-.43Z"/>
    <path class="cls-2" d="M94.59,288.89l.84-1.41-1.45-.61,.22-.69,1.54,.38,.13-1.62h.73l.13,1.61,1.54-.37,.22,.69-1.46,.61,.85,1.41-.59,.43-1.05-1.28-1.07,1.28-.59-.43Z"/>
    <path class="cls-2" d="M101.3,288.89l.84-1.41-1.45-.61,.22-.69,1.54,.38,.13-1.62h.73l.13,1.61,1.54-.37,.22,.69-1.46,.61,.85,1.41-.59,.43-1.05-1.28-1.07,1.28-.59-.43Z"/>
    <path class="cls-2" d="M108,288.89l.84-1.41-1.45-.61,.22-.69,1.54,.38,.13-1.62h.73l.13,1.61,1.54-.37,.22,.69-1.46,.61,.85,1.41-.59,.43-1.05-1.28-1.07,1.28-.59-.43Z"/>
  </g>
</svg>