<?xml version="1.0" encoding="UTF-8"?>
<svg id="Layer_1" data-name="Layer 1" xmlns="http://www.w3.org/2000/svg" viewBox="0 0 432 580">
  <defs>
    <style>
      .cls-1 {
        fill: #fff;
      }

      .cls-2 {
        fill: #1434cb;
      }

      .cls-3 {
        fill: #f79e1b;
      }

      .cls-4 {
        stroke: #e5e7eb;
      }

      .cls-4, .cls-5 {
        fill: none;
      }

      .cls-6 {
        fill: #4f5051;
      }

      .cls-7 {
        fill: #a3a5a8;
      }

      .cls-8 {
        opacity: .66;
      }

      .cls-9 {
        fill: #ff5f00;
      }

      .cls-10 {
        fill: #eb001b;
      }

      .cls-11 {
        fill: #13e0e5;
      }

      .cls-5 {
        stroke: rgba(0, 0, 0, .2);
      }

      .cls-12 {
        fill: #555656;
      }
    </style>
  </defs>
  <rect class="cls-11" x="85" y="496.12" width="262" height="38" rx="8" ry="8"/>
  <g>
    <rect class="cls-1" x="46.34" y="167.22" width="41.05" height="27.37" rx="3.04" ry="3.04"/>
    <path class="cls-2" d="M71.69,175.57c-2.27,0-4.29,1.18-4.29,3.35,0,2.49,3.59,2.66,3.59,3.91,0,.53-.6,1-1.63,1-1.46,0-2.56-.66-2.56-.66l-.47,2.19s1.26,.56,2.93,.56c2.48,0,4.43-1.23,4.43-3.44,0-2.63-3.61-2.8-3.61-3.96,0-.41,.5-.86,1.52-.86,1.16,0,2.11,.48,2.11,.48l.46-2.12s-1.03-.44-2.48-.44Zm-20.74,.16l-.05,.32s.95,.17,1.81,.52c1.11,.4,1.18,.63,1.37,1.35l2.03,7.82h2.72l4.19-10.02h-2.71l-2.69,6.81-1.1-5.78c-.1-.66-.61-1.04-1.24-1.04h-4.33Zm13.16,0l-2.13,10.02h2.59l2.12-10.02h-2.58Zm14.44,0c-.62,0-.95,.33-1.2,.92l-3.79,9.1h2.72l.52-1.52h3.31l.32,1.52h2.39l-2.09-10.02h-2.18Zm.35,2.71l.8,3.76h-2.16l1.35-3.76Z"/>
    <rect class="cls-5" x="47.1" y="167.98" width="39.53" height="25.85" rx="2.28" ry="2.28"/>
  </g>
  <g>
    <rect class="cls-1" x="99.96" y="167.22" width="41.05" height="27.37" rx="3.04" ry="3.04"/>
    <path class="cls-9" d="M116.99,174.55h6.99v12.56h-6.99v-12.56Z"/>
    <path class="cls-10" d="M117.43,180.83c0-2.55,1.2-4.81,3.04-6.28-1.35-1.07-3.06-1.71-4.93-1.71-4.42,0-7.99,3.57-7.99,7.99s3.57,7.99,7.99,7.99c1.86,0,3.57-.64,4.93-1.71-1.84-1.44-3.04-3.73-3.04-6.28Z"/>
    <path class="cls-3" d="M133.41,180.83c0,4.41-3.57,7.99-7.99,7.99-1.86,0-3.57-.64-4.93-1.71,1.86-1.46,3.04-3.73,3.04-6.28s-1.2-4.81-3.04-6.28c1.35-1.07,3.06-1.71,4.93-1.71,4.42,0,7.99,3.59,7.99,7.99Z"/>
    <rect class="cls-5" x="100.72" y="167.98" width="39.53" height="25.85" rx="2.28" ry="2.28"/>
  </g>
  <g>
    <path class="cls-7" d="M45.27,216.56h2.44l4.17,7.54,1.39,2.86h.08c-.11-1.39-.3-3.08-.3-4.58v-5.82h2.26v13.41h-2.44l-4.17-7.55-1.39-2.85h-.08c.11,1.42,.3,3.04,.3,4.53v5.87h-2.26v-13.41Z"/>
    <path class="cls-7" d="M57.85,224.94c0-3.36,2.28-5.29,4.79-5.29s4.79,1.94,4.79,5.29-2.28,5.27-4.79,5.27-4.79-1.94-4.79-5.27Zm7.15,0c0-2.02-.89-3.36-2.36-3.36s-2.36,1.34-2.36,3.36,.89,3.35,2.36,3.35,2.36-1.33,2.36-3.35Z"/>
    <path class="cls-7" d="M69.78,219.9h1.94l.18,1.37h.07c.85-.89,1.83-1.62,3.09-1.62,1.48,0,2.32,.67,2.78,1.8,.96-1.03,1.96-1.8,3.24-1.8,2.12,0,3.11,1.46,3.11,4v6.32h-2.36v-6.01c0-1.66-.49-2.28-1.55-2.28-.64,0-1.33,.41-2.11,1.26v7.04h-2.36v-6.01c0-1.66-.49-2.28-1.55-2.28-.62,0-1.33,.41-2.11,1.26v7.04h-2.36v-10.07Z"/>
    <path class="cls-7" d="M89.2,228.91h-.07l-.21,1.06h-1.86v-14.49h2.36v3.75l-.07,1.67c.84-.74,1.88-1.25,2.91-1.25,2.52,0,3.97,2.02,3.97,5.11,0,3.46-2.06,5.45-4.3,5.45-.92,0-1.9-.47-2.75-1.3Zm4.62-4.11c0-2.01-.66-3.2-2.19-3.2-.73,0-1.44,.37-2.2,1.13v4.69c.71,.62,1.44,.84,2.02,.84,1.34,0,2.37-1.18,2.37-3.46Z"/>
    <path class="cls-7" d="M98.62,219.9h1.94l.18,1.8h.07c.72-1.31,1.78-2.04,2.86-2.04,.51,0,.84,.07,1.14,.21l-.41,2.05c-.35-.1-.62-.16-1.03-.16-.8,0-1.77,.55-2.38,2.08v6.14h-2.36v-10.07Z"/>
    <path class="cls-7" d="M105.4,224.94c0-3.27,2.27-5.29,4.64-5.29,2.72,0,4.16,1.97,4.16,4.78,0,.45-.05,.9-.1,1.15h-6.39c.2,1.79,1.35,2.81,2.97,2.81,.86,0,1.6-.27,2.34-.73l.8,1.47c-.96,.65-2.17,1.09-3.45,1.09-2.78,0-4.96-1.95-4.96-5.27Zm6.76-.97c0-1.55-.69-2.49-2.07-2.49-1.17,0-2.21,.88-2.41,2.49h4.48Z"/>
  </g>
  <g>
    <path class="cls-1" d="M172.25,515.59c0-4.39,2.75-7,6.14-7,1.68,0,3.02,.8,3.86,1.7l-1.27,1.53c-.69-.69-1.49-1.16-2.54-1.16-2.18,0-3.75,1.85-3.75,4.86s1.44,4.91,3.69,4.91c1.19,0,2.11-.55,2.86-1.38l1.27,1.49c-1.09,1.26-2.49,1.95-4.22,1.95-3.37,0-6.05-2.47-6.05-6.91Z"/>
    <path class="cls-1" d="M183.9,517.23c0-3.36,2.28-5.29,4.79-5.29s4.79,1.94,4.79,5.29-2.28,5.27-4.79,5.27-4.79-1.94-4.79-5.27Zm7.15,0c0-2.02-.89-3.36-2.36-3.36s-2.36,1.34-2.36,3.36,.89,3.35,2.36,3.35,2.36-1.33,2.36-3.35Z"/>
    <path class="cls-1" d="M195.83,512.18h1.94l.18,1.36h.07c.9-.88,1.93-1.61,3.31-1.61,2.16,0,3.1,1.46,3.1,4v6.32h-2.36v-6.01c0-1.66-.48-2.28-1.57-2.28-.89,0-1.47,.44-2.3,1.26v7.04h-2.36v-10.07Z"/>
    <path class="cls-1" d="M207.66,518.86v-4.8h-1.44v-1.77l1.56-.11,.28-2.75h1.96v2.75h2.57v1.88h-2.57v4.79c0,1.19,.46,1.77,1.43,1.77,.34,0,.75-.11,1.05-.23l.4,1.74c-.55,.18-1.25,.37-2.06,.37-2.32,0-3.18-1.47-3.18-3.64Z"/>
    <path class="cls-1" d="M214.45,509.08c0-.79,.62-1.34,1.46-1.34s1.46,.54,1.46,1.34-.62,1.34-1.46,1.34-1.46-.56-1.46-1.34Zm.27,3.1h2.36v10.07h-2.36v-10.07Z"/>
    <path class="cls-1" d="M220.09,512.18h1.94l.18,1.36h.07c.9-.88,1.93-1.61,3.31-1.61,2.16,0,3.1,1.46,3.1,4v6.32h-2.36v-6.01c0-1.66-.48-2.28-1.57-2.28-.89,0-1.47,.44-2.3,1.26v7.04h-2.36v-10.07Z"/>
    <path class="cls-1" d="M231.46,518.5v-6.32h2.36v6.01c0,1.66,.48,2.28,1.57,2.28,.89,0,1.47-.41,2.23-1.39v-6.9h2.36v10.07h-1.94l-.18-1.49h-.07c-.89,1.05-1.86,1.73-3.24,1.73-2.16,0-3.1-1.46-3.1-4Z"/>
    <path class="cls-1" d="M242.44,519.55c0-2.16,1.79-3.28,5.92-3.72-.03-1.08-.47-1.99-1.83-1.99-1,0-1.94,.45-2.83,.99l-.87-1.58c1.11-.7,2.54-1.32,4.13-1.32,2.52,0,3.76,1.55,3.76,4.36v5.96h-1.94l-.18-1.12h-.07c-.9,.77-1.94,1.36-3.12,1.36-1.76,0-2.98-1.2-2.98-2.95Zm5.92,0v-2.26c-2.73,.34-3.64,1.06-3.64,2.08,0,.89,.61,1.28,1.45,1.28s1.44-.4,2.19-1.09Z"/>
    <path class="cls-1" d="M253.56,512.18h1.94l.18,1.8h.07c.72-1.31,1.78-2.04,2.86-2.04,.51,0,.84,.07,1.14,.21l-.41,2.05c-.35-.1-.62-.16-1.03-.16-.8,0-1.77,.55-2.38,2.08v6.14h-2.36v-10.07Z"/>
  </g>
  <rect class="cls-4" x="42.56" y="324.64" width="346.5" height="43.81" rx="9.96" ry="9.96"/>
  <g>
    <path class="cls-7" d="M45.27,301.29h2.44l4.17,7.54,1.39,2.86h.08c-.11-1.39-.3-3.08-.3-4.58v-5.82h2.26v13.41h-2.44l-4.17-7.55-1.39-2.85h-.08c.11,1.42,.3,3.04,.3,4.53v5.87h-2.26v-13.41Z"/>
    <path class="cls-7" d="M58.4,310.95v-6.32h2.36v6.01c0,1.66,.48,2.28,1.57,2.28,.89,0,1.47-.41,2.23-1.39v-6.9h2.36v10.07h-1.94l-.18-1.49h-.07c-.89,1.05-1.86,1.73-3.24,1.73-2.16,0-3.1-1.46-3.1-4Zm3.12-9.16l3.03-3.58,1.62,1.57-3.47,3.17-1.18-1.17Z"/>
    <path class="cls-7" d="M69.92,304.63h1.94l.18,1.37h.07c.85-.89,1.83-1.62,3.09-1.62,1.48,0,2.32,.67,2.78,1.8,.96-1.03,1.96-1.8,3.24-1.8,2.12,0,3.11,1.46,3.11,4v6.32h-2.36v-6.01c0-1.66-.49-2.28-1.55-2.28-.64,0-1.33,.41-2.11,1.26v7.04h-2.36v-6.01c0-1.66-.49-2.28-1.55-2.28-.62,0-1.33,.41-2.11,1.26v7.04h-2.36v-10.07Z"/>
    <path class="cls-7" d="M86.55,309.67c0-3.27,2.27-5.29,4.64-5.29,2.72,0,4.16,1.97,4.16,4.78,0,.45-.05,.9-.1,1.15h-6.39c.2,1.79,1.35,2.81,2.97,2.81,.86,0,1.6-.27,2.34-.73l.8,1.47c-.96,.65-2.17,1.09-3.45,1.09-2.78,0-4.96-1.95-4.96-5.27Zm6.76-.97c0-1.55-.69-2.49-2.07-2.49-1.17,0-2.21,.88-2.41,2.49h4.48Z"/>
    <path class="cls-7" d="M97.61,304.63h1.94l.18,1.8h.07c.72-1.31,1.78-2.04,2.86-2.04,.51,0,.84,.07,1.14,.21l-.41,2.05c-.35-.1-.62-.16-1.03-.16-.8,0-1.77,.55-2.38,2.08v6.14h-2.36v-10.07Z"/>
    <path class="cls-7" d="M104.39,309.67c0-3.36,2.28-5.29,4.79-5.29s4.79,1.94,4.79,5.29-2.28,5.27-4.79,5.27-4.79-1.94-4.79-5.27Zm7.15,0c0-2.02-.89-3.36-2.36-3.36s-2.36,1.34-2.36,3.36,.89,3.35,2.36,3.35,2.36-1.33,2.36-3.35Z"/>
    <path class="cls-7" d="M119.68,309.67c0-3.28,2.06-5.29,4.27-5.29,1.14,0,1.86,.43,2.64,1.11l-.09-1.62v-3.65h2.36v14.49h-1.94l-.18-1.09h-.07c-.75,.75-1.78,1.34-2.86,1.34-2.51,0-4.13-1.95-4.13-5.27Zm6.82,2.19v-4.69c-.69-.62-1.37-.84-2.05-.84-1.28,0-2.34,1.21-2.34,3.31s.84,3.35,2.29,3.35c.78,0,1.44-.34,2.1-1.13Z"/>
    <path class="cls-7" d="M131.2,309.67c0-3.27,2.27-5.29,4.64-5.29,2.72,0,4.16,1.97,4.16,4.78,0,.45-.05,.9-.1,1.15h-6.39c.2,1.79,1.35,2.81,2.97,2.81,.86,0,1.6-.27,2.34-.73l.8,1.47c-.96,.65-2.17,1.09-3.45,1.09-2.78,0-4.96-1.95-4.96-5.27Zm6.76-.97c0-1.55-.69-2.49-2.07-2.49-1.17,0-2.21,.88-2.41,2.49h4.48Z"/>
    <path class="cls-7" d="M149.28,303.29h-3.87v-2h10.12v2h-3.87v11.41h-2.38v-11.41Z"/>
    <path class="cls-7" d="M155.63,311.99c0-2.16,1.79-3.28,5.92-3.72-.03-1.08-.47-1.99-1.83-1.99-1,0-1.94,.45-2.83,.99l-.87-1.58c1.11-.7,2.54-1.32,4.13-1.32,2.52,0,3.76,1.55,3.76,4.36v5.96h-1.94l-.18-1.12h-.07c-.9,.77-1.94,1.36-3.12,1.36-1.76,0-2.98-1.2-2.98-2.95Zm5.92,0v-2.26c-2.73,.34-3.64,1.06-3.64,2.08,0,.89,.61,1.28,1.45,1.28s1.44-.4,2.19-1.09Z"/>
    <path class="cls-7" d="M166.75,304.63h1.94l.18,1.8h.07c.72-1.31,1.78-2.04,2.86-2.04,.51,0,.84,.07,1.14,.21l-.41,2.05c-.35-.1-.62-.16-1.03-.16-.8,0-1.77,.55-2.38,2.08v6.14h-2.36v-10.07Z"/>
    <path class="cls-7" d="M171.96,318.66l.44-1.76c.27,.08,.56,.16,.87,.16,.9,0,1.16-.62,1.16-1.8v-10.63h2.36v10.59c0,2.13-.8,3.72-3.19,3.72-.73,0-1.25-.12-1.63-.27Zm2.19-17.14c0-.79,.62-1.34,1.46-1.34s1.46,.54,1.46,1.34-.62,1.34-1.46,1.34-1.46-.56-1.46-1.34Z"/>
    <path class="cls-7" d="M179.13,309.67c0-3.27,2.27-5.29,4.64-5.29,2.72,0,4.16,1.97,4.16,4.78,0,.45-.05,.9-.1,1.15h-6.39c.2,1.79,1.35,2.81,2.97,2.81,.86,0,1.6-.27,2.34-.73l.8,1.47c-.96,.65-2.17,1.09-3.45,1.09-2.78,0-4.96-1.95-4.96-5.27Zm6.76-.97c0-1.55-.69-2.49-2.07-2.49-1.17,0-2.21,.88-2.41,2.49h4.48Z"/>
    <path class="cls-7" d="M190.34,311.31v-4.8h-1.44v-1.77l1.56-.11,.28-2.75h1.96v2.75h2.57v1.88h-2.57v4.79c0,1.19,.46,1.77,1.43,1.77,.34,0,.75-.11,1.05-.23l.4,1.74c-.55,.18-1.25,.37-2.06,.37-2.32,0-3.18-1.47-3.18-3.64Z"/>
    <path class="cls-7" d="M196.42,311.99c0-2.16,1.79-3.28,5.92-3.72-.03-1.08-.47-1.99-1.83-1.99-1,0-1.94,.45-2.83,.99l-.87-1.58c1.11-.7,2.54-1.32,4.13-1.32,2.52,0,3.76,1.55,3.76,4.36v5.96h-1.94l-.18-1.12h-.07c-.9,.77-1.94,1.36-3.12,1.36-1.76,0-2.98-1.2-2.98-2.95Zm5.92,0v-2.26c-2.73,.34-3.64,1.06-3.64,2.08,0,.89,.61,1.28,1.45,1.28s1.44-.4,2.19-1.09Z"/>
  </g>
  <g>
    <path class="cls-7" d="M45.46,391.45h8.1v2h-5.73v3.81h4.87v2h-4.87v5.6h-2.38v-13.41Z"/>
    <path class="cls-7" d="M54.72,399.84c0-3.27,2.27-5.29,4.64-5.29,2.72,0,4.16,1.97,4.16,4.78,0,.45-.05,.9-.1,1.15h-6.39c.2,1.79,1.35,2.81,2.97,2.81,.86,0,1.6-.27,2.34-.73l.8,1.47c-.96,.65-2.17,1.09-3.45,1.09-2.78,0-4.96-1.95-4.96-5.27Zm6.76-.97c0-1.55-.69-2.49-2.07-2.49-1.17,0-2.21,.88-2.41,2.49h4.48Z"/>
    <path class="cls-7" d="M65.12,399.84c0-3.36,2.37-5.29,5.05-5.29,1.28,0,2.21,.49,2.95,1.13l-1.15,1.53c-.53-.47-1.04-.74-1.67-.74-1.62,0-2.75,1.34-2.75,3.36s1.11,3.35,2.67,3.35c.79,0,1.51-.39,2.08-.87l.96,1.56c-.94,.84-2.14,1.24-3.29,1.24-2.75,0-4.86-1.94-4.86-5.27Z"/>
    <path class="cls-7" d="M75.26,390.38h2.36v3.75l-.1,1.94c.84-.8,1.85-1.53,3.22-1.53,2.16,0,3.1,1.46,3.1,4v6.32h-2.36v-6.01c0-1.66-.48-2.28-1.57-2.28-.89,0-1.47,.44-2.3,1.26v7.04h-2.36v-14.49Z"/>
    <path class="cls-7" d="M86.16,402.16c0-2.16,1.79-3.28,5.92-3.72-.03-1.08-.47-1.99-1.83-1.99-1,0-1.94,.45-2.83,.99l-.87-1.58c1.11-.7,2.54-1.32,4.13-1.32,2.52,0,3.76,1.55,3.76,4.36v5.96h-1.94l-.18-1.12h-.07c-.9,.77-1.94,1.36-3.12,1.36-1.76,0-2.98-1.2-2.98-2.95Zm5.92,0v-2.26c-2.73,.34-3.64,1.06-3.64,2.08,0,.89,.61,1.28,1.45,1.28s1.44-.4,2.19-1.09Z"/>
    <path class="cls-7" d="M100.77,399.84c0-3.28,2.06-5.29,4.27-5.29,1.14,0,1.86,.43,2.64,1.11l-.09-1.62v-3.65h2.36v14.49h-1.94l-.18-1.09h-.07c-.75,.75-1.78,1.34-2.86,1.34-2.51,0-4.13-1.95-4.13-5.27Zm6.82,2.19v-4.69c-.69-.62-1.37-.84-2.05-.84-1.28,0-2.34,1.21-2.34,3.31s.84,3.35,2.29,3.35c.78,0,1.44-.34,2.1-1.13Z"/>
    <path class="cls-7" d="M112.29,399.84c0-3.27,2.27-5.29,4.64-5.29,2.72,0,4.16,1.97,4.16,4.78,0,.45-.05,.9-.1,1.15h-6.39c.2,1.79,1.35,2.81,2.97,2.81,.86,0,1.6-.27,2.34-.73l.8,1.47c-.96,.65-2.17,1.09-3.45,1.09-2.78,0-4.96-1.95-4.96-5.27Zm6.76-.97c0-1.55-.69-2.49-2.07-2.49-1.17,0-2.21,.88-2.41,2.49h4.48Z"/>
    <path class="cls-7" d="M125.88,391.45h2.52l1.89,6.74c.43,1.52,.73,2.84,1.18,4.36h.08c.45-1.53,.76-2.84,1.18-4.36l1.86-6.74h2.43l-4.15,13.41h-2.82l-4.17-13.41Z"/>
    <path class="cls-7" d="M137.44,399.84c0-3.27,2.27-5.29,4.64-5.29,2.72,0,4.16,1.97,4.16,4.78,0,.45-.05,.9-.1,1.15h-6.39c.2,1.79,1.35,2.81,2.97,2.81,.86,0,1.6-.27,2.34-.73l.8,1.47c-.96,.65-2.17,1.09-3.45,1.09-2.78,0-4.96-1.95-4.96-5.27Zm6.76-.97c0-1.55-.69-2.49-2.07-2.49-1.17,0-2.21,.88-2.41,2.49h4.48Z"/>
    <path class="cls-7" d="M148.5,394.79h1.94l.18,1.36h.07c.9-.88,1.93-1.61,3.31-1.61,2.16,0,3.1,1.46,3.1,4v6.32h-2.36v-6.01c0-1.66-.48-2.28-1.57-2.28-.89,0-1.47,.44-2.3,1.26v7.04h-2.36v-10.07Z"/>
    <path class="cls-7" d="M159.32,399.84c0-3.36,2.37-5.29,5.05-5.29,1.28,0,2.21,.49,2.95,1.13l-1.15,1.53c-.53-.47-1.04-.74-1.67-.74-1.62,0-2.75,1.34-2.75,3.36s1.11,3.35,2.67,3.35c.79,0,1.51-.39,2.08-.87l.96,1.56c-.94,.84-2.14,1.24-3.29,1.24-2.75,0-4.86-1.94-4.86-5.27Z"/>
    <path class="cls-7" d="M169.19,391.69c0-.79,.62-1.34,1.46-1.34s1.46,.54,1.46,1.34-.62,1.34-1.46,1.34-1.46-.56-1.46-1.34Zm.27,3.1h2.36v10.07h-2.36v-10.07Z"/>
    <path class="cls-7" d="M174.84,394.79h1.94l.18,1.37h.07c.85-.89,1.83-1.62,3.09-1.62,1.48,0,2.32,.67,2.78,1.8,.96-1.03,1.96-1.8,3.24-1.8,2.12,0,3.11,1.46,3.11,4v6.32h-2.36v-6.01c0-1.66-.49-2.28-1.55-2.28-.64,0-1.33,.41-2.11,1.26v7.04h-2.36v-6.01c0-1.66-.49-2.28-1.55-2.28-.62,0-1.33,.41-2.11,1.26v7.04h-2.36v-10.07Z"/>
    <path class="cls-7" d="M191.86,391.69c0-.79,.62-1.34,1.46-1.34s1.46,.54,1.46,1.34-.62,1.34-1.46,1.34-1.46-.56-1.46-1.34Zm.27,3.1h2.36v10.07h-2.36v-10.07Z"/>
    <path class="cls-7" d="M196.84,399.84c0-3.27,2.27-5.29,4.64-5.29,2.72,0,4.16,1.97,4.16,4.78,0,.45-.05,.9-.1,1.15h-6.39c.2,1.79,1.35,2.81,2.97,2.81,.86,0,1.6-.27,2.34-.73l.8,1.47c-.96,.65-2.17,1.09-3.45,1.09-2.78,0-4.96-1.95-4.96-5.27Zm6.76-.97c0-1.55-.69-2.49-2.07-2.49-1.17,0-2.21,.88-2.41,2.49h4.48Z"/>
    <path class="cls-7" d="M207.9,394.79h1.94l.18,1.36h.07c.9-.88,1.93-1.61,3.31-1.61,2.16,0,3.1,1.46,3.1,4v6.32h-2.36v-6.01c0-1.66-.48-2.28-1.57-2.28-.89,0-1.47,.44-2.3,1.26v7.04h-2.36v-10.07Z"/>
    <path class="cls-7" d="M219.74,401.47v-4.8h-1.44v-1.77l1.56-.11,.28-2.75h1.96v2.75h2.57v1.88h-2.57v4.79c0,1.19,.46,1.77,1.43,1.77,.34,0,.75-.11,1.05-.23l.4,1.74c-.55,.18-1.25,.37-2.06,.37-2.32,0-3.18-1.47-3.18-3.64Z"/>
    <path class="cls-7" d="M225.8,399.84c0-3.36,2.28-5.29,4.79-5.29s4.79,1.94,4.79,5.29-2.28,5.27-4.79,5.27-4.79-1.94-4.79-5.27Zm7.15,0c0-2.02-.89-3.36-2.36-3.36s-2.36,1.34-2.36,3.36,.89,3.35,2.36,3.35,2.36-1.33,2.36-3.35Z"/>
  </g>
  <g>
    <path class="cls-7" d="M266.49,397.33c0-4.39,2.75-7,6.14-7,1.68,0,3.02,.8,3.86,1.7l-1.27,1.53c-.69-.69-1.49-1.17-2.54-1.17-2.18,0-3.75,1.85-3.75,4.86s1.44,4.91,3.69,4.91c1.19,0,2.11-.55,2.86-1.38l1.27,1.49c-1.09,1.26-2.49,1.95-4.22,1.95-3.37,0-6.05-2.47-6.05-6.91Z"/>
    <path class="cls-7" d="M277.7,390.58h2.52l1.89,6.74c.43,1.52,.73,2.84,1.18,4.36h.08c.45-1.53,.76-2.84,1.18-4.36l1.86-6.74h2.43l-4.15,13.41h-2.82l-4.17-13.41Z"/>
    <path class="cls-7" d="M289.49,390.58h2.52l1.89,6.74c.43,1.52,.73,2.84,1.18,4.36h.08c.45-1.53,.76-2.84,1.18-4.36l1.86-6.74h2.43l-4.15,13.41h-2.82l-4.17-13.41Z"/>
  </g>
  <g>
    <path class="cls-6" d="M120.27,97.72h1.74v9.81h-1.74v-9.81Z"/>
    <path class="cls-6" d="M124.35,100.16h1.42l.13,1h.05c.66-.64,1.41-1.18,2.42-1.18,1.58,0,2.27,1.07,2.27,2.93v4.62h-1.73v-4.4c0-1.21-.35-1.67-1.15-1.67-.65,0-1.07,.32-1.68,.92v5.15h-1.73v-7.37Z"/>
    <path class="cls-6" d="M132.25,108.87c0-.62,.38-1.16,1.06-1.57v-.06c-.38-.25-.67-.64-.67-1.23s.39-1.07,.82-1.37v-.06c-.5-.37-.97-1.07-.97-1.94,0-1.69,1.37-2.65,2.91-2.65,.41,0,.79,.07,1.09,.18h2.63v1.28h-1.34c.24,.28,.42,.73,.42,1.24,0,1.64-1.24,2.51-2.8,2.51-.31,0-.67-.07-1-.19-.22,.19-.36,.38-.36,.71,0,.41,.3,.67,1.19,.67h1.31c1.76,0,2.7,.55,2.7,1.82,0,1.45-1.52,2.6-3.93,2.6-1.76,0-3.07-.63-3.07-1.92Zm5.33-.4c0-.57-.46-.74-1.3-.74h-1.01c-.4,0-.71-.03-1-.1-.4,.3-.57,.63-.57,.97,0,.67,.72,1.06,1.88,1.06s2-.56,2-1.19Zm-.9-5.84c0-.92-.56-1.45-1.28-1.45s-1.28,.52-1.28,1.45,.57,1.48,1.28,1.48,1.28-.55,1.28-1.48Z"/>
    <path class="cls-6" d="M140.55,100.16h1.42l.13,1.31h.05c.53-.96,1.3-1.49,2.09-1.49,.38,0,.61,.05,.83,.15l-.3,1.5c-.26-.07-.45-.12-.76-.12-.59,0-1.29,.4-1.74,1.52v4.49h-1.73v-7.37Z"/>
    <path class="cls-6" d="M145.51,103.85c0-2.39,1.66-3.87,3.4-3.87,1.99,0,3.04,1.44,3.04,3.5,0,.33-.04,.66-.07,.84h-4.68c.14,1.31,.98,2.05,2.17,2.05,.63,0,1.17-.2,1.71-.53l.59,1.07c-.7,.47-1.59,.8-2.53,.8-2.04,0-3.63-1.43-3.63-3.86Zm4.94-.71c0-1.13-.5-1.82-1.51-1.82-.86,0-1.61,.64-1.76,1.82h3.28Z"/>
    <path class="cls-6" d="M152.87,106.68l.8-1.1c.65,.51,1.29,.82,2.04,.82,.8,0,1.18-.38,1.18-.88,0-.62-.8-.89-1.58-1.19-.97-.36-2.07-.92-2.07-2.15s1.03-2.2,2.68-2.2c1.03,0,1.85,.42,2.45,.88l-.79,1.06c-.52-.38-1.04-.64-1.61-.64-.74,0-1.09,.35-1.09,.82,0,.58,.74,.8,1.54,1.1,1,.37,2.11,.85,2.11,2.23,0,1.27-1,2.29-2.86,2.29-1.01,0-2.07-.43-2.79-1.03Z"/>
    <path class="cls-6" d="M159.58,103.85c0-2.39,1.66-3.87,3.39-3.87,1.99,0,3.04,1.44,3.04,3.5,0,.33-.04,.66-.08,.84h-4.68c.14,1.31,.98,2.05,2.17,2.05,.63,0,1.17-.2,1.71-.53l.59,1.07c-.7,.47-1.59,.8-2.53,.8-2.03,0-3.63-1.43-3.63-3.86Zm4.94-.71c0-1.13-.5-1.82-1.51-1.82-.86,0-1.62,.64-1.76,1.82h3.28Z"/>
    <path class="cls-6" d="M170.67,105.63v-8.7h1.73v8.79c0,.43,.19,.58,.37,.58,.08,0,.14,0,.27-.03l.22,1.29c-.21,.08-.5,.15-.91,.15-1.22,0-1.67-.79-1.67-2.08Z"/>
    <path class="cls-6" d="M174.25,103.85c0-2.45,1.67-3.87,3.5-3.87s3.5,1.42,3.5,3.87-1.67,3.86-3.5,3.86-3.5-1.42-3.5-3.86Zm5.23,0c0-1.48-.65-2.46-1.73-2.46s-1.73,.98-1.73,2.46,.65,2.45,1.73,2.45,1.73-.97,1.73-2.45Z"/>
    <path class="cls-6" d="M182.18,106.68l.8-1.1c.65,.51,1.29,.82,2.03,.82,.8,0,1.18-.38,1.18-.88,0-.62-.8-.89-1.58-1.19-.96-.36-2.07-.92-2.07-2.15s1.03-2.2,2.68-2.2c1.03,0,1.85,.42,2.45,.88l-.79,1.06c-.52-.38-1.03-.64-1.61-.64-.74,0-1.09,.35-1.09,.82,0,.58,.74,.8,1.54,1.1,.99,.37,2.11,.85,2.11,2.23,0,1.27-1,2.29-2.86,2.29-1.01,0-2.07-.43-2.79-1.03Z"/>
    <path class="cls-6" d="M191.93,103.85c0-2.4,1.51-3.87,3.12-3.87,.83,0,1.36,.31,1.93,.81l-.07-1.19v-2.67h1.73v10.6h-1.42l-.13-.8h-.05c-.55,.55-1.3,.98-2.09,.98-1.84,0-3.02-1.43-3.02-3.86Zm4.98,1.6v-3.43c-.5-.45-1-.61-1.5-.61-.94,0-1.71,.89-1.71,2.42s.61,2.45,1.67,2.45c.57,0,1.05-.25,1.54-.83Z"/>
    <path class="cls-6" d="M200.44,105.55c0-1.58,1.31-2.4,4.33-2.72-.03-.79-.34-1.45-1.34-1.45-.73,0-1.42,.33-2.07,.73l-.64-1.15c.81-.51,1.85-.97,3.02-.97,1.84,0,2.75,1.13,2.75,3.19v4.36h-1.42l-.13-.82h-.05c-.66,.56-1.42,1-2.29,1-1.29,0-2.18-.88-2.18-2.16Zm4.33,0v-1.66c-2,.25-2.66,.77-2.66,1.52,0,.65,.44,.94,1.06,.94s1.06-.29,1.6-.8Z"/>
    <path class="cls-6" d="M208.59,105.04v-3.51h-1.05v-1.3l1.14-.08,.2-2.01h1.43v2.01h1.88v1.37h-1.88v3.51c0,.87,.34,1.29,1.04,1.29,.25,0,.55-.08,.77-.17l.29,1.27c-.4,.13-.91,.27-1.51,.27-1.7,0-2.33-1.07-2.33-2.66Z"/>
    <path class="cls-6" d="M213.03,103.85c0-2.45,1.67-3.87,3.5-3.87s3.5,1.42,3.5,3.87-1.67,3.86-3.5,3.86-3.5-1.42-3.5-3.86Zm5.23,0c0-1.48-.65-2.46-1.73-2.46s-1.73,.98-1.73,2.46,.65,2.45,1.73,2.45,1.73-.97,1.73-2.45Z"/>
    <path class="cls-6" d="M220.96,106.68l.8-1.1c.65,.51,1.29,.82,2.03,.82,.8,0,1.18-.38,1.18-.88,0-.62-.8-.89-1.58-1.19-.96-.36-2.07-.92-2.07-2.15s1.03-2.2,2.68-2.2c1.03,0,1.85,.42,2.45,.88l-.79,1.06c-.52-.38-1.03-.64-1.61-.64-.74,0-1.09,.35-1.09,.82,0,.58,.74,.8,1.54,1.1,.99,.37,2.11,.85,2.11,2.23,0,1.27-1,2.29-2.86,2.29-1.01,0-2.07-.43-2.79-1.03Z"/>
    <path class="cls-6" d="M230.7,103.85c0-2.4,1.51-3.87,3.12-3.87,.83,0,1.36,.31,1.93,.81l-.07-1.19v-2.67h1.73v10.6h-1.42l-.13-.8h-.05c-.55,.55-1.3,.98-2.09,.98-1.84,0-3.02-1.43-3.02-3.86Zm4.98,1.6v-3.43c-.5-.45-1-.61-1.5-.61-.94,0-1.71,.89-1.71,2.42s.61,2.45,1.67,2.45c.57,0,1.05-.25,1.54-.83Z"/>
    <path class="cls-6" d="M239.13,103.85c0-2.39,1.66-3.87,3.39-3.87,1.99,0,3.04,1.44,3.04,3.5,0,.33-.04,.66-.08,.84h-4.68c.14,1.31,.98,2.05,2.17,2.05,.63,0,1.17-.2,1.71-.53l.59,1.07c-.7,.47-1.59,.8-2.53,.8-2.03,0-3.63-1.43-3.63-3.86Zm4.94-.71c0-1.13-.5-1.82-1.51-1.82-.86,0-1.62,.64-1.76,1.82h3.28Z"/>
    <path class="cls-6" d="M249.49,106.68l.8-1.1c.65,.51,1.29,.82,2.03,.82,.8,0,1.18-.38,1.18-.88,0-.62-.8-.89-1.58-1.19-.96-.36-2.07-.92-2.07-2.15s1.03-2.2,2.68-2.2c1.03,0,1.85,.42,2.45,.88l-.79,1.06c-.52-.38-1.03-.64-1.61-.64-.74,0-1.09,.35-1.09,.82,0,.58,.74,.8,1.54,1.1,.99,.37,2.11,.85,2.11,2.23,0,1.27-1,2.29-2.86,2.29-1.01,0-2.07-.43-2.79-1.03Z"/>
    <path class="cls-6" d="M256.6,104.78v-4.62h1.73v4.4c0,1.21,.35,1.67,1.14,1.67,.65,0,1.07-.3,1.63-1.02v-5.05h1.73v7.37h-1.42l-.13-1.09h-.05c-.65,.77-1.36,1.27-2.37,1.27-1.58,0-2.27-1.07-2.27-2.93Z"/>
    <path class="cls-6" d="M268.28,105.04v-3.51h-1.05v-1.3l1.14-.08,.21-2.01h1.43v2.01h1.88v1.37h-1.88v3.51c0,.87,.34,1.29,1.04,1.29,.25,0,.55-.08,.77-.17l.29,1.27c-.4,.13-.92,.27-1.51,.27-1.7,0-2.33-1.07-2.33-2.66Z"/>
    <path class="cls-6" d="M272.73,105.55c0-1.58,1.31-2.4,4.33-2.72-.03-.79-.34-1.45-1.34-1.45-.73,0-1.42,.33-2.07,.73l-.64-1.15c.81-.51,1.85-.97,3.02-.97,1.84,0,2.75,1.13,2.75,3.19v4.36h-1.42l-.13-.82h-.05c-.66,.56-1.42,1-2.29,1-1.29,0-2.18-.88-2.18-2.16Zm4.33,0v-1.66c-2,.25-2.66,.77-2.66,1.52,0,.65,.44,.94,1.06,.94s1.06-.29,1.6-.8Z"/>
    <path class="cls-6" d="M280.86,100.16h1.42l.13,1.31h.05c.53-.96,1.3-1.49,2.09-1.49,.38,0,.61,.05,.83,.15l-.3,1.5c-.26-.07-.45-.12-.76-.12-.59,0-1.29,.4-1.74,1.52v4.49h-1.73v-7.37Z"/>
    <path class="cls-6" d="M284.67,110.43l.32-1.29c.2,.06,.41,.11,.63,.11,.66,0,.85-.46,.85-1.31v-7.78h1.73v7.75c0,1.56-.59,2.72-2.33,2.72-.53,0-.91-.09-1.19-.2Zm1.6-12.53c0-.58,.46-.98,1.07-.98s1.07,.4,1.07,.98-.46,.98-1.07,.98-1.07-.41-1.07-.98Z"/>
    <path class="cls-6" d="M289.92,103.85c0-2.39,1.66-3.87,3.39-3.87,1.99,0,3.04,1.44,3.04,3.5,0,.33-.04,.66-.08,.84h-4.68c.14,1.31,.98,2.05,2.17,2.05,.63,0,1.17-.2,1.71-.53l.59,1.07c-.7,.47-1.59,.8-2.53,.8-2.03,0-3.63-1.43-3.63-3.86Zm4.94-.71c0-1.13-.5-1.82-1.51-1.82-.86,0-1.62,.64-1.76,1.82h3.28Z"/>
    <path class="cls-6" d="M298.11,105.04v-3.51h-1.05v-1.3l1.14-.08,.2-2.01h1.43v2.01h1.88v1.37h-1.88v3.51c0,.87,.34,1.29,1.04,1.29,.25,0,.55-.08,.77-.17l.29,1.27c-.4,.13-.91,.27-1.51,.27-1.7,0-2.33-1.07-2.33-2.66Z"/>
    <path class="cls-6" d="M302.56,105.55c0-1.58,1.31-2.4,4.33-2.72-.03-.79-.34-1.45-1.34-1.45-.73,0-1.42,.33-2.07,.73l-.64-1.15c.81-.51,1.85-.97,3.02-.97,1.84,0,2.75,1.13,2.75,3.19v4.36h-1.42l-.13-.82h-.05c-.66,.56-1.42,1-2.29,1-1.29,0-2.18-.88-2.18-2.16Zm4.33,0v-1.66c-2,.25-2.66,.77-2.66,1.52,0,.65,.44,.94,1.06,.94s1.06-.29,1.6-.8Z"/>
    <path class="cls-6" d="M156.13,121.85c0-2.4,1.51-3.87,3.12-3.87,.83,0,1.36,.31,1.93,.81l-.07-1.19v-2.67h1.73v10.6h-1.42l-.13-.8h-.05c-.55,.55-1.3,.98-2.09,.98-1.84,0-3.02-1.43-3.02-3.86Zm4.98,1.6v-3.43c-.5-.45-1-.61-1.5-.61-.94,0-1.71,.89-1.71,2.42s.61,2.45,1.67,2.45c.57,0,1.05-.25,1.54-.83Z"/>
    <path class="cls-6" d="M164.56,121.85c0-2.39,1.66-3.87,3.39-3.87,1.99,0,3.04,1.44,3.04,3.5,0,.33-.04,.66-.08,.84h-4.68c.14,1.31,.98,2.05,2.17,2.05,.63,0,1.17-.2,1.71-.53l.59,1.07c-.7,.47-1.59,.8-2.53,.8-2.03,0-3.63-1.43-3.63-3.86Zm4.94-.71c0-1.13-.5-1.82-1.51-1.82-.86,0-1.62,.64-1.76,1.82h3.28Z"/>
    <path class="cls-6" d="M175.16,121.85c0-2.45,1.73-3.87,3.7-3.87,.94,0,1.62,.36,2.15,.83l-.84,1.12c-.39-.34-.76-.54-1.22-.54-1.19,0-2.01,.98-2.01,2.46s.81,2.45,1.96,2.45c.58,0,1.1-.28,1.52-.64l.7,1.14c-.69,.61-1.56,.91-2.4,.91-2.01,0-3.55-1.42-3.55-3.86Z"/>
    <path class="cls-6" d="M182.58,118.16h1.42l.13,1.31h.05c.53-.96,1.3-1.49,2.09-1.49,.38,0,.61,.05,.83,.15l-.3,1.5c-.26-.07-.45-.12-.76-.12-.59,0-1.29,.4-1.74,1.52v4.49h-1.73v-7.37Z"/>
    <path class="cls-6" d="M187.53,121.85c0-2.39,1.66-3.87,3.4-3.87,1.99,0,3.04,1.44,3.04,3.5,0,.33-.04,.66-.07,.84h-4.68c.14,1.31,.98,2.05,2.17,2.05,.63,0,1.17-.2,1.71-.53l.59,1.07c-.7,.47-1.59,.8-2.53,.8-2.04,0-3.63-1.43-3.63-3.86Zm4.94-.71c0-1.13-.5-1.82-1.51-1.82-.86,0-1.61,.64-1.76,1.82h3.28Z"/>
    <path class="cls-6" d="M195.17,121.85c0-2.4,1.51-3.87,3.12-3.87,.83,0,1.36,.31,1.93,.81l-.07-1.19v-2.67h1.73v10.6h-1.42l-.13-.8h-.05c-.54,.55-1.3,.98-2.09,.98-1.84,0-3.02-1.43-3.02-3.86Zm4.99,1.6v-3.43c-.5-.45-1-.61-1.5-.61-.94,0-1.71,.89-1.71,2.42s.61,2.45,1.67,2.45c.57,0,1.05-.25,1.54-.83Z"/>
    <path class="cls-6" d="M203.89,115.89c0-.58,.46-.98,1.07-.98s1.07,.4,1.07,.98-.46,.98-1.07,.98-1.07-.41-1.07-.98Zm.2,2.27h1.73v7.37h-1.73v-7.37Z"/>
    <path class="cls-6" d="M208.27,123.04v-3.51h-1.05v-1.3l1.14-.08,.2-2.01h1.43v2.01h1.88v1.37h-1.88v3.51c0,.87,.34,1.29,1.04,1.29,.25,0,.55-.08,.77-.17l.29,1.27c-.4,.13-.91,.27-1.51,.27-1.7,0-2.33-1.07-2.33-2.66Z"/>
    <path class="cls-6" d="M212.7,121.85c0-2.45,1.67-3.87,3.5-3.87s3.5,1.42,3.5,3.87-1.67,3.86-3.5,3.86-3.5-1.42-3.5-3.86Zm5.23,0c0-1.48-.65-2.46-1.73-2.46s-1.73,.98-1.73,2.46,.65,2.45,1.73,2.45,1.73-.97,1.73-2.45Z"/>
    <path class="cls-6" d="M223.85,121.85c0-2.45,1.67-3.87,3.5-3.87s3.5,1.42,3.5,3.87-1.67,3.86-3.5,3.86-3.5-1.42-3.5-3.86Zm5.23,0c0-1.48-.65-2.46-1.73-2.46s-1.73,.98-1.73,2.46,.65,2.45,1.73,2.45,1.73-.97,1.73-2.45Z"/>
    <path class="cls-6" d="M235.03,121.85c0-2.4,1.51-3.87,3.12-3.87,.83,0,1.36,.31,1.93,.81l-.07-1.19v-2.67h1.73v10.6h-1.42l-.13-.8h-.05c-.54,.55-1.3,.98-2.09,.98-1.84,0-3.02-1.43-3.02-3.86Zm4.99,1.6v-3.43c-.5-.45-1-.61-1.5-.61-.94,0-1.71,.89-1.71,2.42s.61,2.45,1.67,2.45c.57,0,1.05-.25,1.54-.83Z"/>
    <path class="cls-6" d="M243.45,121.85c0-2.39,1.66-3.87,3.4-3.87,1.99,0,3.04,1.44,3.04,3.5,0,.33-.04,.66-.07,.84h-4.68c.14,1.31,.98,2.05,2.17,2.05,.63,0,1.17-.2,1.71-.53l.59,1.07c-.7,.47-1.59,.8-2.53,.8-2.04,0-3.63-1.43-3.63-3.86Zm4.94-.71c0-1.13-.5-1.82-1.51-1.82-.86,0-1.61,.64-1.76,1.82h3.28Zm-2.44-5.06l2.21-2.62,1.19,1.15-2.54,2.32-.86-.85Z"/>
    <path class="cls-6" d="M253.1,124.75h-.05l-.15,.77h-1.36v-10.6h1.73v2.74l-.05,1.22c.61-.54,1.37-.92,2.13-.92,1.84,0,2.91,1.48,2.91,3.74,0,2.53-1.51,3.99-3.14,3.99-.67,0-1.39-.34-2.01-.95Zm3.38-3.01c0-1.47-.48-2.34-1.6-2.34-.53,0-1.05,.27-1.61,.83v3.43c.52,.45,1.05,.61,1.48,.61,.98,0,1.73-.86,1.73-2.53Z"/>
    <path class="cls-6" d="M259.79,115.89c0-.58,.46-.98,1.07-.98s1.07,.4,1.07,.98-.46,.98-1.07,.98-1.07-.41-1.07-.98Zm.2,2.27h1.73v7.37h-1.73v-7.37Z"/>
    <path class="cls-6" d="M264.18,123.04v-3.51h-1.05v-1.3l1.14-.08,.2-2.01h1.43v2.01h1.88v1.37h-1.88v3.51c0,.87,.34,1.29,1.04,1.29,.25,0,.55-.08,.77-.17l.29,1.27c-.4,.13-.91,.27-1.51,.27-1.7,0-2.33-1.07-2.33-2.66Z"/>
    <path class="cls-6" d="M268.61,121.85c0-2.45,1.67-3.87,3.5-3.87s3.5,1.42,3.5,3.87-1.67,3.86-3.5,3.86-3.5-1.42-3.5-3.86Zm5.23,0c0-1.48-.65-2.46-1.73-2.46s-1.73,.98-1.73,2.46,.65,2.45,1.73,2.45,1.73-.97,1.73-2.45Z"/>
  </g>
  <rect class="cls-4" x="42.56" y="239.91" width="161.44" height="43.81" rx="7" ry="7"/>
  <g>
    <path class="cls-7" d="M231.38,217.07h2.79l4.37,13.41h-2.52l-2.04-7.14c-.43-1.42-.82-2.95-1.21-4.42h-.08c-.37,1.49-.76,3-1.19,4.42l-2.06,7.14h-2.43l4.37-13.41Zm-1.79,7.91h6.32v1.87h-6.32v-1.87Z"/>
    <path class="cls-7" d="M240,220.41h1.94l.18,1.07h.07c.85-.73,1.93-1.32,3.04-1.32,2.52,0,3.96,2.02,3.96,5.13,0,3.45-2.06,5.44-4.3,5.44-.89,0-1.77-.4-2.59-1.11l.07,1.67v3.17h-2.36v-14.06Zm6.75,4.91c0-2.01-.66-3.2-2.19-3.2-.73,0-1.42,.37-2.2,1.13v4.69c.72,.62,1.44,.84,2.02,.84,1.34,0,2.37-1.18,2.37-3.46Z"/>
    <path class="cls-7" d="M250.9,225.45c0-3.27,2.27-5.29,4.64-5.29,2.72,0,4.16,1.97,4.16,4.78,0,.45-.05,.9-.1,1.15h-6.39c.2,1.79,1.35,2.81,2.97,2.81,.86,0,1.6-.27,2.34-.73l.8,1.47c-.96,.65-2.17,1.09-3.45,1.09-2.78,0-4.96-1.95-4.96-5.27Zm6.76-.97c0-1.55-.69-2.49-2.07-2.49-1.17,0-2.21,.88-2.41,2.49h4.48Z"/>
    <path class="cls-7" d="M261.96,227.89v-11.89h2.36v12.02c0,.58,.26,.79,.51,.79,.11,0,.19,0,.37-.04l.3,1.76c-.29,.11-.68,.21-1.25,.21-1.67,0-2.29-1.08-2.29-2.84Z"/>
    <path class="cls-7" d="M267.52,227.89v-11.89h2.36v12.02c0,.58,.26,.79,.51,.79,.11,0,.19,0,.37-.04l.3,1.76c-.29,.11-.68,.21-1.25,.21-1.67,0-2.29-1.08-2.29-2.84Z"/>
    <path class="cls-7" d="M272.81,217.31c0-.79,.62-1.34,1.46-1.34s1.46,.54,1.46,1.34-.62,1.34-1.46,1.34-1.46-.56-1.46-1.34Zm.27,3.1h2.36v10.07h-2.36v-10.07Z"/>
    <path class="cls-7" d="M277.84,225.45c0-3.28,2.06-5.29,4.27-5.29,1.14,0,1.86,.43,2.64,1.11l-.09-1.62v-3.65h2.36v14.49h-1.94l-.18-1.09h-.07c-.75,.75-1.78,1.34-2.86,1.34-2.51,0-4.13-1.95-4.13-5.27Zm6.82,2.19v-4.69c-.69-.62-1.37-.84-2.05-.84-1.28,0-2.34,1.21-2.34,3.31s.84,3.35,2.29,3.35c.78,0,1.44-.34,2.1-1.13Z"/>
    <path class="cls-7" d="M289.36,225.45c0-3.36,2.28-5.29,4.79-5.29s4.79,1.94,4.79,5.29-2.28,5.27-4.79,5.27-4.79-1.94-4.79-5.27Zm7.15,0c0-2.02-.89-3.36-2.36-3.36s-2.36,1.34-2.36,3.36,.89,3.35,2.36,3.35,2.36-1.33,2.36-3.35Z"/>
  </g>
  <rect class="cls-4" x="226.05" y="240.42" width="163.01" height="43.81" rx="7" ry="7"/>
  <rect class="cls-4" x="266.49" y="414.38" width="88.83" height="40.92" rx="8" ry="8"/>
  <rect class="cls-4" x="45.46" y="414.38" width="153.61" height="40.92" rx="8" ry="8"/>
  <path class="cls-6" d="M235.21,51.38c-6.37,0-11.53,5.16-11.53,11.53s5.16,11.53,11.53,11.53,11.53-5.16,11.53-11.53-5.16-11.53-11.53-11.53Zm-1.2,16.61l-4.32-4.19,1.78-1.79,2.54,2.41,5.42-5.56,1.78,1.78s-7.2,7.34-7.2,7.34Zm-38.51-6.36h12.81v2.56h-12.81s0-2.56,0-2.56Zm20.5-2.56h-20.5v-2.56h20.5v2.56Zm3.85,10.25h-28.19c-.71,0-1.28-.57-1.28-1.28v-16.65h32.84c3.03-3.15,7.28-5.12,11.99-5.12,2.27,0,4.43,.46,6.4,1.28v-8.97c0-2.83-2.3-5.12-5.12-5.12h-46.11c-2.83,0-5.12,2.3-5.12,5.12v30.74c0,2.83,2.3,5.12,5.12,5.12h32.84c-1.42-1.48-2.58-3.2-3.38-5.12Zm-29.47-29.46c0-.71,.57-1.28,1.28-1.28h43.55c.71,0,1.28,.57,1.28,1.28v3.84h-46.11v-3.84Z"/>
  <path class="cls-7" d="M403.43,419.95h-37.24c-2.06,0-3.72,1.67-3.72,3.72v22.35c0,2.06,1.67,3.72,3.72,3.72h37.24c2.06,0,3.72-1.67,3.72-3.72v-22.35c0-2.06-1.67-3.72-3.72-3.72Zm0,25.14c0,.51-.42,.93-.93,.93h-35.38c-.51,0-.93-.42-.93-.93v-12.1h37.24v12.1Zm0-17.69h-37.24v-2.79c0-.51,.42-.93,.93-.93h35.38c.51,0,.93,.42,.93,.93v2.79Zm-16.76,11.17h-16.76v-1.86h16.76v1.86Zm-5.59,3.72h-11.17v-1.86h11.17v1.86Z"/>
  <g class="cls-8">
    <path class="cls-12" d="M410.56,429.19v5.25h-6.39l-2.39,1.25v-1.25h-2.2v-5.25h10.98Zm1.1-.81h-13.17v6.86h2.2v2.03l3.84-2.03h7.14s0-6.86,0-6.86Z"/>
  </g>
  <g>
    <path class="cls-12" d="M401.62,432.11c0-.77,.48-1.23,1.08-1.23,.3,0,.53,.14,.68,.3l-.22,.27c-.12-.12-.26-.21-.45-.21-.38,0-.66,.33-.66,.86s.25,.87,.65,.87c.21,0,.37-.1,.5-.24l.22,.26c-.19,.22-.44,.34-.75,.34-.59,0-1.07-.43-1.07-1.22Z"/>
    <path class="cls-12" d="M403.81,430.92h.44l.33,1.19c.08,.27,.13,.5,.21,.77h.01c.08-.27,.13-.5,.21-.77l.33-1.19h.43l-.73,2.37h-.5l-.73-2.37Z"/>
    <path class="cls-12" d="M406.11,430.92h.44l.33,1.19c.08,.27,.13,.5,.21,.77h.01c.08-.27,.13-.5,.21-.77l.33-1.19h.43l-.73,2.37h-.5l-.73-2.37Z"/>
  </g>
  <g>
    <path class="cls-12" d="M394.58,438.27h.45v-1.32h-.37v-.23c.2-.04,.34-.09,.46-.17h.27v1.71h.39v.3h-1.21v-.3Z"/>
    <path class="cls-12" d="M396.36,438.36c.56-.54,.91-.89,.91-1.2,0-.21-.12-.35-.33-.35-.16,0-.28,.1-.39,.22l-.2-.2c.18-.2,.37-.31,.64-.31,.38,0,.64,.24,.64,.62s-.33,.73-.73,1.14c.11,0,.24-.02,.34-.02h.49v.31h-1.36v-.21Z"/>
    <path class="cls-12" d="M398.21,438.32l.17-.23c.12,.12,.27,.22,.48,.22,.22,0,.37-.11,.37-.3,0-.21-.13-.34-.59-.34v-.27c.39,0,.52-.14,.52-.32,0-.17-.11-.27-.3-.27-.16,0-.28,.07-.4,.19l-.19-.22c.17-.15,.36-.25,.61-.25,.38,0,.65,.19,.65,.53,0,.22-.13,.38-.35,.46h0c.24,.07,.42,.25,.42,.51,0,.37-.32,.58-.71,.58-.32,0-.54-.12-.68-.28Z"/>
  </g>
  <g>
    <path class="cls-4" d="M59.1,347.13c0-3.21,1.16-4.93,3.07-4.93s3.07,1.73,3.07,4.93-1.16,5-3.07,5-3.07-1.79-3.07-5Zm4.93,0c0-2.8-.76-3.93-1.87-3.93s-1.87,1.13-1.87,3.93,.76,4,1.87,4,1.87-1.2,1.87-4Z"/>
    <path class="cls-4" d="M66.99,347.13c0-3.21,1.16-4.93,3.07-4.93s3.07,1.73,3.07,4.93-1.16,5-3.07,5-3.07-1.79-3.07-5Zm4.93,0c0-2.8-.76-3.93-1.87-3.93s-1.87,1.13-1.87,3.93,.76,4,1.87,4,1.87-1.2,1.87-4Z"/>
    <path class="cls-4" d="M74.88,347.13c0-3.21,1.16-4.93,3.07-4.93s3.07,1.73,3.07,4.93-1.16,5-3.07,5-3.07-1.79-3.07-5Zm4.93,0c0-2.8-.76-3.93-1.87-3.93s-1.87,1.13-1.87,3.93,.76,4,1.87,4,1.87-1.2,1.87-4Z"/>
    <path class="cls-4" d="M82.77,347.13c0-3.21,1.16-4.93,3.07-4.93s3.07,1.73,3.07,4.93-1.16,5-3.07,5-3.07-1.79-3.07-5Zm4.93,0c0-2.8-.76-3.93-1.87-3.93s-1.87,1.13-1.87,3.93,.76,4,1.87,4,1.87-1.2,1.87-4Z"/>
    <path class="cls-4" d="M94.1,347.13c0-3.21,1.16-4.93,3.07-4.93s3.07,1.73,3.07,4.93-1.16,5-3.07,5-3.07-1.79-3.07-5Zm4.93,0c0-2.8-.76-3.93-1.87-3.93s-1.87,1.13-1.87,3.93,.76,4,1.87,4,1.87-1.2,1.87-4Z"/>
    <path class="cls-4" d="M101.99,347.13c0-3.21,1.16-4.93,3.07-4.93s3.07,1.73,3.07,4.93-1.16,5-3.07,5-3.07-1.79-3.07-5Zm4.93,0c0-2.8-.76-3.93-1.87-3.93s-1.87,1.13-1.87,3.93,.76,4,1.87,4,1.87-1.2,1.87-4Z"/>
    <path class="cls-4" d="M109.88,347.13c0-3.21,1.16-4.93,3.07-4.93s3.07,1.73,3.07,4.93-1.16,5-3.07,5-3.07-1.79-3.07-5Zm4.93,0c0-2.8-.76-3.93-1.87-3.93s-1.87,1.13-1.87,3.93,.76,4,1.87,4,1.87-1.2,1.87-4Z"/>
    <path class="cls-4" d="M117.77,347.13c0-3.21,1.16-4.93,3.07-4.93s3.07,1.73,3.07,4.93-1.16,5-3.07,5-3.07-1.79-3.07-5Zm4.93,0c0-2.8-.76-3.93-1.87-3.93s-1.87,1.13-1.87,3.93,.76,4,1.87,4,1.87-1.2,1.87-4Z"/>
    <path class="cls-4" d="M129.09,347.13c0-3.21,1.16-4.93,3.07-4.93s3.07,1.73,3.07,4.93-1.16,5-3.07,5-3.07-1.79-3.07-5Zm4.93,0c0-2.8-.76-3.93-1.87-3.93s-1.87,1.13-1.87,3.93,.76,4,1.87,4,1.87-1.2,1.87-4Z"/>
    <path class="cls-4" d="M136.98,347.13c0-3.21,1.16-4.93,3.07-4.93s3.07,1.73,3.07,4.93-1.16,5-3.07,5-3.07-1.79-3.07-5Zm4.93,0c0-2.8-.76-3.93-1.87-3.93s-1.87,1.13-1.87,3.93,.76,4,1.87,4,1.87-1.2,1.87-4Z"/>
    <path class="cls-4" d="M144.87,347.13c0-3.21,1.16-4.93,3.07-4.93s3.07,1.73,3.07,4.93-1.16,5-3.07,5-3.07-1.79-3.07-5Zm4.93,0c0-2.8-.76-3.93-1.87-3.93s-1.87,1.13-1.87,3.93,.76,4,1.87,4,1.87-1.2,1.87-4Z"/>
    <path class="cls-4" d="M152.76,347.13c0-3.21,1.16-4.93,3.07-4.93s3.07,1.73,3.07,4.93-1.16,5-3.07,5-3.07-1.79-3.07-5Zm4.93,0c0-2.8-.76-3.93-1.87-3.93s-1.87,1.13-1.87,3.93,.76,4,1.87,4,1.87-1.2,1.87-4Z"/>
    <path class="cls-4" d="M164.09,347.13c0-3.21,1.16-4.93,3.07-4.93s3.07,1.73,3.07,4.93-1.16,5-3.07,5-3.07-1.79-3.07-5Zm4.93,0c0-2.8-.76-3.93-1.87-3.93s-1.87,1.13-1.87,3.93,.76,4,1.87,4,1.87-1.2,1.87-4Z"/>
    <path class="cls-4" d="M171.98,347.13c0-3.21,1.16-4.93,3.07-4.93s3.07,1.73,3.07,4.93-1.16,5-3.07,5-3.07-1.79-3.07-5Zm4.93,0c0-2.8-.76-3.93-1.87-3.93s-1.87,1.13-1.87,3.93,.76,4,1.87,4,1.87-1.2,1.87-4Z"/>
    <path class="cls-4" d="M179.87,347.13c0-3.21,1.16-4.93,3.07-4.93s3.07,1.73,3.07,4.93-1.16,5-3.07,5-3.07-1.79-3.07-5Zm4.93,0c0-2.8-.76-3.93-1.87-3.93s-1.87,1.13-1.87,3.93,.76,4,1.87,4,1.87-1.2,1.87-4Z"/>
    <path class="cls-4" d="M187.76,347.13c0-3.21,1.16-4.93,3.07-4.93s3.07,1.73,3.07,4.93-1.16,5-3.07,5-3.07-1.79-3.07-5Zm4.93,0c0-2.8-.76-3.93-1.87-3.93s-1.87,1.13-1.87,3.93,.76,4,1.87,4,1.87-1.2,1.87-4Z"/>
  </g>
  <g>
    <path class="cls-4" d="M277.88,435.54c0-3.21,1.16-4.93,3.07-4.93s3.07,1.73,3.07,4.93-1.16,5-3.07,5-3.07-1.79-3.07-5Zm4.93,0c0-2.8-.76-3.93-1.87-3.93s-1.87,1.13-1.87,3.93,.76,4,1.87,4,1.87-1.2,1.87-4Z"/>
    <path class="cls-4" d="M285.77,435.54c0-3.21,1.16-4.93,3.07-4.93s3.07,1.73,3.07,4.93-1.16,5-3.07,5-3.07-1.79-3.07-5Zm4.93,0c0-2.8-.76-3.93-1.87-3.93s-1.87,1.13-1.87,3.93,.76,4,1.87,4,1.87-1.2,1.87-4Z"/>
    <path class="cls-4" d="M293.66,435.54c0-3.21,1.16-4.93,3.07-4.93s3.07,1.73,3.07,4.93-1.16,5-3.07,5-3.07-1.79-3.07-5Zm4.93,0c0-2.8-.76-3.93-1.87-3.93s-1.87,1.13-1.87,3.93,.76,4,1.87,4,1.87-1.2,1.87-4Z"/>
  </g>
  <g>
    <path class="cls-4" d="M61.2,434.73c0-3.21,1.16-4.93,3.07-4.93s3.07,1.73,3.07,4.93-1.16,5-3.07,5-3.07-1.79-3.07-5Zm4.93,0c0-2.8-.76-3.93-1.87-3.93s-1.87,1.13-1.87,3.93,.76,4,1.87,4,1.87-1.2,1.87-4Z"/>
    <path class="cls-4" d="M69.6,438.52h2.19v-7.04h-1.74v-.79c.87-.15,1.5-.38,2.04-.7h.94v8.54h1.98v1.03h-5.4v-1.03Z"/>
    <path class="cls-4" d="M83.91,428.9h.89l-4,13.05h-.89l4-13.05Z"/>
    <path class="cls-4" d="M89.47,438.82c2.88-2.87,4.5-4.59,4.5-6.14,0-1.09-.59-1.87-1.81-1.87-.8,0-1.49,.51-2.03,1.15l-.72-.7c.8-.88,1.66-1.45,2.9-1.45,1.77,0,2.87,1.12,2.87,2.82,0,1.79-1.65,3.58-3.91,5.95,.52-.04,1.11-.08,1.61-.08h2.77v1.06h-6.18v-.73Z"/>
    <path class="cls-4" d="M97.42,434.73c0-3.21,1.16-4.93,3.07-4.93s3.07,1.73,3.07,4.93-1.16,5-3.07,5-3.07-1.79-3.07-5Zm4.93,0c0-2.8-.76-3.93-1.87-3.93s-1.87,1.13-1.87,3.93,.76,4,1.87,4,1.87-1.2,1.87-4Z"/>
    <path class="cls-4" d="M105.24,438.82c2.88-2.87,4.5-4.59,4.5-6.14,0-1.09-.59-1.87-1.81-1.87-.8,0-1.49,.51-2.03,1.15l-.72-.7c.8-.88,1.66-1.45,2.9-1.45,1.77,0,2.87,1.12,2.87,2.82,0,1.79-1.65,3.58-3.91,5.95,.52-.04,1.11-.08,1.61-.08h2.77v1.06h-6.18v-.73Z"/>
    <path class="cls-4" d="M112.93,438.38l.62-.8c.58,.6,1.32,1.13,2.44,1.13s1.99-.68,1.99-1.75c0-1.14-.78-1.9-3.05-1.9v-.95c2.03,0,2.71-.78,2.71-1.78,0-.93-.64-1.51-1.65-1.51-.8,0-1.48,.4-2.04,.97l-.67-.78c.74-.68,1.62-1.19,2.75-1.19,1.66,0,2.86,.88,2.86,2.43,0,1.15-.7,1.89-1.74,2.27v.06c1.16,.27,2.08,1.12,2.08,2.43,0,1.71-1.41,2.73-3.16,2.73-1.54,0-2.5-.64-3.14-1.35Z"/>
  </g>
</svg>